<?xml version="1.0" encoding="utf-8"?>
<!-- Generator: Adobe Illustrator 23.1.1, SVG Export Plug-In . SVG Version: 6.00 Build 0)  -->
<svg version="1.1" id="Layer_1" xmlns="http://www.w3.org/2000/svg" xmlns:xlink="http://www.w3.org/1999/xlink" x="0px" y="0px"
	 viewBox="0 0 33 35" style="enable-background:new 0 0 33 35;" xml:space="preserve">
<style type="text/css">
	.st0{fill:#FFFFFF;}
</style>
<g>
	<path class="st0" d="M16.5,2.1C8,2.1,1.1,9,1.1,17.5C1.1,26,8,32.9,16.5,32.9S31.9,26,31.9,17.5C31.9,9,25,2.1,16.5,2.1z
		 M16.5,30.9c-7.4,0-13.4-6-13.4-13.4c0-7.4,6-13.4,13.4-13.4s13.4,6,13.4,13.4C29.9,24.9,23.9,30.9,16.5,30.9z"/>
	<g>
		<path class="st0" d="M24,9.8c0.6,0.8,0.9,1.8,0.9,3c0,1.2-0.3,2.2-0.9,2.9c-0.3,0.4-0.8,0.8-1.5,1.1c1,0.4,1.8,0.9,2.3,1.7
			c0.5,0.8,0.8,1.7,0.8,2.9c0,1.2-0.3,2.2-0.9,3.1c-0.4,0.6-0.8,1.1-1.4,1.5c-0.6,0.5-1.4,0.8-2.2,1c-0.9,0.2-1.8,0.3-2.8,0.3H9.5
			V7.7h9.5C21.3,7.7,23,8.4,24,9.8z M13.4,11.1v4.3h4.8c0.9,0,1.5-0.2,2.1-0.5c0.5-0.3,0.8-0.9,0.8-1.7c0-0.9-0.4-1.5-1.1-1.8
			c-0.6-0.2-1.4-0.3-2.3-0.3H13.4z M13.4,18.7v5.2h4.8c0.8,0,1.5-0.1,2-0.3c0.9-0.4,1.3-1.2,1.3-2.4c0-1-0.4-1.7-1.2-2.1
			c-0.5-0.2-1.1-0.3-2-0.3H13.4z"/>
	</g>
</g>
</svg>
