<?xml version="1.0" encoding="utf-8"?>
<!-- Generator: Adobe Illustrator 23.1.1, SVG Export Plug-In . SVG Version: 6.00 Build 0)  -->
<svg version="1.1" id="Layer_1" xmlns="http://www.w3.org/2000/svg" xmlns:xlink="http://www.w3.org/1999/xlink" x="0px" y="0px"
	 viewBox="0 0 373 384" style="enable-background:new 0 0 373 384;" xml:space="preserve">
<style type="text/css">
	.st0{fill:#252525;}
	.st1{fill:#202020;}
</style>
<g>
	<g id="XMLID_1_">
		<g>
			<path class="st0" d="M370.4,174.8c0,2.5,0,4.9,0,7.4c-0.4,2-0.8,4-1.3,6.6c-4.2-1.9-8.1-3.5-11.9-5.4c-0.5-0.3-0.5-1.7-0.9-2
				c-2.1-0.9-4.4-1.5-6.3-2.6c-2.8-1.7-5.3-3.8-8.3-5.5c11.1,13.2,17.2,28.2,17.4,45.7c-3.6-0.6-3.3-4.8-5.7-6.5
				c-1.4,1.3-2.4,1.3-3.1-0.7c-0.5-1.4-1.2-2.7-2.2-4.8c-0.6,4.1-1.1,7.4-1.6,10.7c-0.7,4.1-1.4,8.2-2,12.2c0.4-0.1,1.3-0.3,2.5-0.6
				c-0.2,1.2-0.3,2-0.4,2.9c-1.4,0.5-2.8,1-3.8,1.3c-1.7,6.2-3.4,12.2-5,18.3c-0.6,2.2-1.8,3.1-4.1,2.6c-2.7-0.5-3.1,1.9-4.1,3.4
				c-0.9,1.4-1.2,3.2-2,4.7c-2.6,5-7.9,7.2-11.3,11.6c-3.1,4.1-8.7,6.4-13.2,9.4c-1.7,1.1-3.5,2.1-5.3,3.1c0.1,0.1,0.1,0.2,0.2,0.3
				c2.4-0.5,4.7-1.1,7.1-1.6c0.1,0.3,0.3,0.6,0.4,0.9c-1.1,0.9-2.2,1.9-3.8,3.3c4.2-1.1,7.7-1.9,11.1-3c3-1,6.5-1.8,8.5-3.8
				c7.1-7,12.7-15.3,16.5-24.4c3.5-8.5,6-17.4,9-26.1c3.6,0,6.2,1.6,6.9,5.4c0.6,3.3,0.5,6.9,0.3,10.3c-0.3,4.8-3.1,8.7-5.6,12.9
				c1.3,0.9,2.5,1.7,3.8,2.6c0.6-0.9,1.2-2.4,2-2.6c1.4-0.4,3.2-0.3,4.5,0.3c1.5,0.6,2.9,1.7,2.5,4.1c-0.4,2.2-1.3,4.6,0.1,7
				c0.4,0.6-0.3,2-0.7,2.9c-5.8,14.6-16.8,24.3-30.3,31.5c-2.2,1.2-4,2.2-5.4,4.7c-2.8,4.7-8,5.9-13.1,6.8c-0.8,0.1-1.7,0.2-2.7,0.3
				c0.3,1.3,0.5,2.4,0.9,4.3c5.2-2.1,10.4-3.6,15.2-6.1c5.6-3,10.9-6.6,16.1-10.3c4.3-3,8.7-4.7,14.4-3.3c-0.4,3.6-0.9,7.2-1.3,10.9
				c1.8,0.1,1.3,1.5,0.9,3c-3.1,9.6-9.1,17-18.2,21.3c-14.5,6.9-29.7,11-45.9,9.9c-3.5-0.3-7-0.7-10.4-1.2c-0.9-0.1-1.5-1.1-2.2-1.8
				c-2.1-1.4-3.5,4.2-6.1,0.4c-2,1.7-4.3,3.1-7.3,1.1c0-0.4-0.2-1.2-0.3-2.1c-6.5,1-12.3-0.9-18.2-2.7c-2-0.6-4.7-1.6-6.2-0.8
				c-3.3,1.7-5.6,0.2-8.4-0.6c-1.4-0.4-3.2,0.4-5.2,0.8c3.9,3.8,6.7,7.9,2.9,13.6c-3.6,0.7-6.2-0.1-11.4-3.6c-2.5,0.5-4.5,1-6.5,1.3
				c-32.7,4.2-64.8,1.7-94.8-12.9c-41.8-20.4-72.1-51.8-84.8-97.1c-13.2-47.2-6.9-92.1,22.5-132.3c6.6-9,14.9-16.7,22.5-25
				c0.4-0.5,1-0.9,1.6-1.2c0.2-0.1,0.5-0.1,0.7-0.1c1,3.2,2.2,6.2,2.9,9.4c0.5,2.4,1.7,3.9,3.7,5c1.5,0.8,2.6,1.7,2.1,3.7
				c-0.1,0.4,0,0.9,0.1,1.4c1,3.9,1,4.1-0.8,7.8c-2.1,4.4,0,10.1,4.3,12c2.6,1.1,2.9,1.7,3,5.2c-1-0.1-2-0.2-3-0.3
				c-9.3-1.7-16.2,5.3-14.3,14.6c1.4,6.8,6.8,11.5,13.7,12.1c0.5,0,1.3,0.5,1.4,0.9c0.1,0.4-0.3,1.3-0.7,1.6c-0.9,0.8-2.1,1.3-3,2
				c-2.5,2.1-2.7,4.1-0.8,6.6c1.1,1.4,0.7,2.1-0.3,3.3c-1.9,2.3-3.7,4.7-5.3,7.3c-1.3,2-1.8,4.1-0.2,6.3c1,1.4,0,2.2-1.2,2.8
				c-3,1.4-5.3,3.6-6.4,6.9c-0.9,2.7-0.7,5.2,1.3,7.4c2.1,2.3,4.8,3.7,7.8,2.7c2.2-0.7,2.8-0.1,3.5,2c2.2,6.9,8.6,8.8,14.7,4.6
				c0.3-0.2,0.7-0.2,1.4-0.3c0.9,4.2,1.8,8.3,2.5,12.4c0.4,2.6,1.7,3.6,4.4,2.7c-0.8-3.8-1.6-7.6-2.2-11.5
				c-0.6-3.4-0.9-6.9-1.3-10.4c-0.2-1.6,0.1-3.2-2-4.2c-0.6-0.3-0.7-3.5,0-4.4c2-2.4,1.8-4.7,0.6-7.3c-2.7,1.4-3.2,4.2-3.7,6.6
				c-0.7,3.3-0.7,6.7-1,10.1c-0.2,2.3-0.7,4.4-3.4,4.8c-3,0.5-5.7-0.8-6.2-3.6c-0.6-3.7-0.5-7.6-0.7-11.4c-0.9,1-2.1,2.3-3.3,3.6
				c-1.8,2.1-4.1,3.3-6.8,2.3c-1-0.4-2-1.8-2.2-2.9c-0.5-3,1-5.2,3.6-6.5c3.5-1.7,7-3.1,10.6-4.6c-0.4-3.6,0.2-4.4,3.9-4.9
				c0,0.7,0,1.4,0,2.1c0.9,0,1.9,0.1,2.8,0c0.6-0.1,1.3-0.6,1.6-1.1c0.2-0.3-0.4-1-0.8-1.5c-0.4-0.7-0.8-1.3-1.7-2.6
				c-4-0.5-8.3,1.2-12.6,3.7c1.1-7.4,6.9-10.6,12.5-14.1c-2.5-1-4.8-2-7.9-3.2c3.3-2.2,6.1-4.1,9.1-6.2c-3.5-2.6-3.5-2.9-1-4.3
				c-1-0.9-1.9-1.8-3.1-2.8c3.6-1.3,4.8-4.2,3.6-7.3c-1.5-4.2-3.9-7.3-8.7-7.8c-4.8-0.6-8,3.2-6.5,7.8c1.2,3.4,3.7,5.5,6.5,5.2
				c-0.9-0.8-1.8-1.3-2.3-2.2c-0.4-0.8-0.2-1.9-0.2-2.8c1,0.1,1.9,0.1,2.9,0.2c0.1,0,0.3,0.2,0.4,0.4c2,2,3,5.9,1.8,7.2
				c-1.4,1.5-5.4,1-7.6-1c-3.6-3.3-5.2-7.3-4-12.2c0.8-3.2,2.6-5,6-4.9c3.3,0.1,6.5,0.9,9.8,1.4c0-0.1-0.1-0.9-0.2-1.8
				c1-0.1,1.9-0.2,3.4-0.4c-1.9-4.8-3.7-9.6-5.6-14.2c-0.3,0.1-0.5,0.2-0.8,0.3c-0.1,0.8-0.2,1.6-0.4,2.3c-0.2,0.1-0.5,0.3-0.8,0.4
				c-0.7-1-1.9-1.9-2.1-3c-0.3-1.5,0-3.1,0.4-4.7c0-0.2,1.7-0.4,2.5-0.1c1,0.4,1.8,1.3,3.3,1.7c-1.3-3-2.6-5.9-3.8-8.9
				c-0.5-1.3-1.1-2.7-0.9-4c0.4-2.3-0.5-3.5-2.4-4.5c-4.8-2.6-7.7-12.7-4.9-17.3c0.8-1.4,2.9-2.5,4.5-2.7c3.3-0.3,5.9,1.4,8.5,3.6
				c3.7,3.1,4.4,7.3,5.6,11.4c1.2,4.1,0.4,9,5,11.7c2-10.1,6.1-20.1,3-30.9c-0.5-1.7-0.9-3.4-1.8-4.8c-4.8-7.8-10.4-15-17.5-21
				c-3.9-3.2-4.9-7.5-3.4-12.3c0.9-2.8,2.9-4.4,5.7-4.9c10.1-1.8,21.4,6.5,22.7,16.6c0.2,1.4,0.7,2.2,2.2,3.1
				c1.5,0.9,2.5,3.3,2.8,5.1c1.8,11.2,1.3,22.4-0.9,33.5c-0.1,0.4-0.1,0.7-0.2,1.3c0.4-0.3,0.7-0.4,0.8-0.5
				c4.4-8.6,9.1-17.2,10.9-26.9c1.2-6.9,0-13.6-4.3-19.4c-1-1.3-2.6-2.3-4.2-3.8c0.4-2.7-1.6-3.3-4.5-3.8c-1.6-0.3-3.5-2-4.2-3.6
				c-2.3-5-2.3-10.3-0.1-15.4C119,6.9,130,1,139.1,2.6c5.1,0.9,8.3,4.5,10.4,8.8c0.8,1.5-0.1,3.8-0.2,5.9c1.6-0.3,3-0.5,4.4-0.8
				c4.5,12.6-0.2,23.8-4.8,34.8c-3.9,9.4-8.5,18.4-12.8,27.4c5.1-4.2,10.6-8.5,15.9-13c5.5-4.7,10.8-9.7,15-15.7
				c-2.9-1.5-3.7-3.3-2-5c0.9-1,2.6-2.1,3.7-1.9c1.1,0.2,2.5,2.2,2.5,3.3c-0.1,2.6-0.8,5.3-1.5,7.9c-0.3,1-1.1,2-2,3.5
				c6.3-2.6,12.2-4.5,16.6-9.4c2.1-2.3,4.5-3.6,7.9-3c0.4,3.7-3.9,2.4-5.2,5.4c5.1-1.1,9.7-1.6,13.9-3.2c6.5-2.6,12.7-6.1,19.1-9.1
				c1-0.5,2.2-0.3,3.4-0.4c0,0.3,0.1,0.5,0.1,0.8c3.8-3.5,8-6.6,11.2-10.5c3.1-3.8,5.2-8.5,7.7-12.9c0.3,0.1,0.6,0.2,0.9,0.4
				c-0.1,0.8,0.1,1.7-0.2,2.4c-1.6,4.1-1.5,8.4-1.5,12.7c0,3.3-1.1,6.6-1.7,10.1c0.9-1.1,1.8-2.2,2.8-3.2c0.6-0.6,1.4-1,2.2-1.4
				c0.3,0.9,1.1,2,0.9,2.6c-1.3,3-2.8,5.8-4.4,8.6c-0.6,1-1.9,1.7-2.6,2.9c6.1,0.1,11.6-1.5,17.1-3.4c0.4-0.1,0.9-0.4,1.3-0.5
				c5.2-1.5,9.8-4.5,15.2-6.1c7-2.1,13-7.1,17-13.8c2-3.3,3.7-6.8,5.7-10.1c0.5-0.9,1.5-1.5,2.3-2.2c0.4,0.2,0.8,0.4,1.1,0.6
				c-1.3,5.8-1.8,12-4.2,17.3c-2.4,5.1-4.2,11.3-10.4,13.8c1.5,0.8,2.6,1.4,3.6,2c-0.6,0.5-1.2,1.1-2.1,1.9c2.7,3.5,5-1.8,7.7-0.5
				c0.1,0.4,0.3,1.1,0.6,2.2c4.8-1.8,10-2.9,14.2-5.5c5.7-3.5,10.8-8.2,16.2-12.2c6.6-4.9,13.3-9.7,21.8-10.7c1.4-0.2,2.8-0.2,4.2,0
				c3.8,0.5,5.1,3.8,2.3,6.4c-4.8,4.2-9.7,8.3-15.1,11.8c-11,7.2-23.1,11.8-35.9,14.8c-0.3,0.1-0.7,0.2-0.9,0.9
				c2.4-0.3,4.7-0.7,7.1-1c1.5-0.2,3-0.5,4.5-0.5c0.5,0,1,0.9,1.6,1.4c-0.2,0.4-0.4,0.9-0.6,1.3c8.2,0.3,16.4,1,24.6,0.7
				c8.2-0.3,16.3-1.7,25.3-2.7c-1,0.9-1.3,1.5-1.8,1.6c-7.7,2.3-15.2,4.9-23,6.7c-7.3,1.7-14.6,0.9-21.6-1.9
				c-7.3-2.9-12.8-0.7-16.8,6.2c1.9,1.8,3.9,3.5,5.7,5.4c0.5,0.5,1.3,1.3,1.2,1.8c-0.2,2.9,1.9,2.9,3.8,3.4c6.9,1.8,8.8,7.1,4.7,13
				c-2.6,3.7-2.6,3.7,0,7.7c2.9-0.1,6.4-0.9,8.1,2.2c1.4,2.6-0.2,4.9-2.4,6.5c2.2,4.9,4.4,9.6,6.7,14.4c0.3,0.6,1.4,1,2.2,1.1
				c2.4,0.4,4.9,0.4,7.3,0.9c3.9,0.9,5.3,2.8,4.4,6.5c-0.9,4-2.8,7.8-4.2,11.4c5.2-2.2,10.1-5.8,14.4-10.9c-1.6-0.1-2.9-0.2-4.1-0.2
				c-1.3-6.8,2-11.6,7.8-11.3c1.8,0.1,4.2,1.3,5.1,2.7c0.7,1.1,0.2,3.8-0.7,5.2c-5.1,7.7-12.1,13.7-19.8,18.7
				c-0.8,0.5-1.6,1-2.3,1.5c1.1,5.9,5.9,6.2,10.2,6.9c6.4,1.1,12.4,3.2,16.5,8.3C366.9,167.4,368.4,171.3,370.4,174.8z M367,184
				c2.2-8.6-0.7-15.1-7.3-20.4c-0.7,0.9-1.3,1.7-1.9,2.4c2,1.9,4.8,3,4,7c-1.9-1.2-3.9-2.4-6.2-3.8c-0.6,2.8-2.1,1.4-2.6,0.3
				c-1.7-3.9-6.1-2.9-8.5-5.7c-0.3,1.5-0.5,2.5-0.8,4c-3.4-5.1-13.8-7.5-20.1-5c0.5,0.1,0.8,0.3,1.2,0.4c9.7,2.8,19.4,5.6,26.9,13
				c0.4,0.4,1.3,0.4,1.9,0.3c3.3-0.9,4.7-0.2,6,3.1c0.2,0.6,0.4,1.4,0.9,1.6C362.6,182.1,364.9,183,367,184z M355,275.8
				c1.1-2.9,2.2-5.8,3.2-8.8c-4.8,3.3-6.2,2.7-7.8,0.9c-4.9,4.1-9.5,8.3-14.5,12c-4.7,3.5-9.5,6.6-15.5,8.4
				c-8.4,2.5-16.7,4.4-25.4,4.8c-9.8,0.4-18.7-2.6-27-7.9c-1.1,1.2-2.3,2.5-3.3,3.6c7.5,5.2,15.7,7.2,24.7,5c-2,3-5.4,1.5-7.7,3
				c1.1,0.2,2.3,0.4,3.3,0c2.3-0.9,3.6,1.6,5.3,1.7c5.9,0.6,11.9,1.4,17.7,0.9c5.4-0.5,10.7-2.7,16-4.1c1.2-0.3,2.4-0.7,3.5-1
				c0.4,0.5,0.7,0.9,1.1,1.4c-0.7,0.2-1.5,0.4-2.2,0.7c-11.9,6.5-24.8,6.2-38,5.7c0.9,1.1,1.7,1.9,2.4,2.8c-0.2,0.3-0.4,0.5-0.5,0.7
				c-3.1-1.6-6.3-3.1-9.9-4.9c1,1.4,1.6,2.2,2.3,3.1c-0.2,0.3-0.4,0.6-0.7,0.9c-8.7-5.1-17.6-9.7-27.2-12.8c2,2,4.4,3.5,6.5,5.3
				c11.1,9.9,24.5,13.2,38.9,13.8c11.5,0.4,21.7-4.2,31.5-9.4c7.9-4.2,14-10.8,19.9-17.5c1.6-1.8,3.6-3.7,2.6-6.7
				C354.1,277.1,354.8,276.4,355,275.8z M353.9,207.2c0.4-0.2,0.8-0.5,1.2-0.7c-1.6-4.7-2.6-9.7-4.9-13.9
				c-2.9-5.2-6.9-9.9-10.5-14.7c-0.8-1.1-1.9-2.1-3-3.3c-0.5,0.9-0.9,1.5-1.3,2.3c2.3,1.9,5.2,3.2,4.8,7.6c-3.5-3-6.3-5.9-9.6-7.9
				c-3.2-1.9-6.9-2.7-10.6-4.1c3.3,4.5,6.7,8.2,9.1,12.5c2.2,4,5.7,4.6,9.3,5.9c2.1,0.8,4.7,1.5,6,3.1c2.8,3.4,4.9,7.3,7.3,11
				C352.2,205.8,353.1,206.5,353.9,207.2z M347.4,161.5c2.9,0,5.7,2.6,8.6-0.2c-4.8-2.5-9.8-2.8-14.9-1.2
				C343.2,160.8,345.3,161.5,347.4,161.5z M353.2,306c-0.3-0.3-0.5-0.6-0.8-0.9c-2,0.6-4.2,1-6.1,2c-1.8,1-3.2,2.6-4.8,3.9
				c-8.3,6.6-18.5,9.5-27.9,13.9c-0.4,0.2-0.9,0.2-1.4,0.2c-5.5,1-5.5,1.1-4.8,7.4c3.4-0.9,7.1-1.1,10-2.7c2.8-1.6,4.8-4.7,7.1-7.1
				c0.2,0.1,0.4,0.3,0.6,0.4c-0.3,1.2-0.6,2.3-1.1,4.2c3-2.5,5.5-4.6,8-6.5c0.6-0.4,1.6-0.2,2.4-0.3c0,0.2,0.1,0.4,0.1,0.7
				c1.1-0.4,2.3-0.9,3.4-1.3c0.2,0.3,0.4,0.6,0.5,0.9c-2.7,3.4-6.9,4.9-10.7,7.4c1.5,0.3,2.6,0.5,3.8,0.8c0.4,0.1,0.6,0.6,0.9,0.9
				c-0.4,0.3-0.8,0.8-1.2,0.9c-0.6,0.1-1.3-0.1-1.9-0.3c-3.6-1-6.7,0.1-9.6,2.1c0.6,0.9,1.1,1.7,1.6,2.6c-0.2,0.3-0.4,0.6-0.6,0.9
				c-1.1-0.4-2.1-0.8-3.2-1.2c-1-0.4-2.1-1.1-3.1-1.1c-4.1,0.3-8.3,0.5-12.3,1.5c-8.1,2-16.2,2.4-24.4,1.6c-0.6,0-1.1-0.1-1.7-0.2
				c-11.4-1.3-22-5.2-31.7-11c-4.8-2.9-8.9-6.9-13.2-10.6c-2.4-2.1-4.4-4.5-6.5-6.8c0.1,3,0.6,5.7,1.5,8.4
				c5.9,18.8,28.3,26.8,42.3,25.1c1-0.1,2,0.1,3.1,0.2c1.1-0.8,2.6-1.7,4.4-3c0.2,1.8,0.3,2.8,0.4,3.7c1.9-0.5,3.7-1,5.4-1.4
				c-0.1,0.4-0.2,0.7-0.4,1.1c1,0.7,1.9,1.6,3,1.9c1.3,0.4,2.8,0.5,4.2,0.6c14.3,1.3,28-1.3,41.3-6.4c8.1-3.1,14.9-8.1,19.3-15.9
				c0.4-0.8,0.5-1.8,0.5-2.7c0-2.9-0.6-5.6,1.7-8.2C352.3,310.2,352.5,307.9,353.2,306z M348.6,251.8c3.8-3.1,4.3-10.7,1.2-13.2
				c-3.5,9.1-7.1,18.2-10.3,26.5c1-0.9,2.9-2.3,4.3-4.1c1.3-1.7,2.8-3.7,3.1-5.7C347.2,253.7,347.4,252.8,348.6,251.8z M348.1,29.9
				c0.8-0.7,0.8-2.1,1.2-3.2c-1.2-0.1-2.3-0.3-3.5-0.3c-0.7,0-1.4,0.4-2.2,0.7c-8.9,3.1-16.5,8.4-23.5,14.4
				C311,49.3,300,52.1,289,55.8c0.9-0.1,1.8-0.1,2.8-0.2c16-1.9,30.6-7.8,44.3-16C340.4,37,344.2,33.3,348.1,29.9z M345.7,207
				c-0.5-4.6-1.2-9.2-5.3-12.3c-0.5-0.4-1.1-0.8-1.7-0.9c-1.4-0.4-2.9-0.6-4.9-0.9c1.8,2,3.6,3.9,5.3,6c0.5,0.6,1.2,2.2,1,2.2
				c-2,1.4-0.6,2.8-0.2,4.2c0.7,2.3,1.5,4.6,2.2,7c0.2,0.7,0.3,1.5,0.2,2.2c-0.2,2-0.5,4-0.8,6c0.3,0,0.5,0.1,0.8,0.1
				c0.2-0.2,0.3-0.4,0.4-0.7C344.7,215.8,342.1,210.7,345.7,207z M340.7,61.2c-6.7,0-13.5,0-20.3,0
				C327.2,64.1,333.9,63.7,340.7,61.2z M334.3,249.3c4.1-10,6.4-20.3,5.1-31.2c-0.5-4.1-1.4-8.2-2.5-12.1c-0.7-2.3-1.2-5.2-5-5
				c4.8,19.8,0.2,37.9-8.7,55.4c1-0.5,2.1-1.1,2.5-2.1c1.8-3.6,2.6-4.1,6.9-3.8C333.1,250.7,334,249.9,334.3,249.3z M336.6,276
				c2.5-2.2,4.6-4.1,6.8-6C337.4,273,337,273.3,336.6,276z M333.5,139.7c3.5-2.4,4.8-4.9,3.9-7.6c-0.8-2.4-5.4-4.8-8.6-4
				c-1.2,0.3-2.1,1.9-3.1,2.9c0.3,0.3,0.6,0.6,0.9,0.9c1.4-0.4,2.8-1,4.2-1.2c0.9-0.1,2.5,0.2,2.6,0.7c0.3,0.9-0.1,2.1-0.5,3.1
				c-0.1,0.4-0.8,0.7-1.1,1c0.3,0.9,0.5,1.7,0.8,2.3C332.9,138.5,333.2,139.1,333.5,139.7z M318.9,153.6c5.8,0,11.7,0,17.8,0
				c-0.5-1.3-1-2.3-1.2-2.8c-5.8,0.9-11.2,1.7-16.6,2.6C318.9,153.5,318.9,153.6,318.9,153.6z M333.3,176c1.2-1,1.8-1.6,2.4-2.1
				c-3.7-4.9-12.8-9.8-18-9.3c2.9,1.3,6,2.4,9,3.6c0.7,0.3,1.2,1,1.8,1.5c-0.2,0.2-0.3,0.4-0.5,0.6c-2.2,0-4.4,0-7.3,0
				c2.7,0.8,4.8,1.3,6.8,2c1.9,0.7,3.8,2.1,5.7-0.8C333.3,173.2,333.3,174.3,333.3,176z M322.1,188.6c3.4,3.1,5.3,8.3,11.3,8.2
				c-1.6-2.2-3.2-4.2-4.7-6.4c-3-4.3-5.8-8.8-9.1-13c-3-3.9-8.2-4.4-12.6-1.8c2.6,0.7,5.2,1.4,8.1,2.1c0.2,0.9,0.4,2.2,0.7,4.1
				c-2.7-1.2-4.6-2.1-6.5-3c-0.5,0.6-1,1.2-1.7,1.9c-1.3-3.5-3.7-5-7.4-4.5c2.8,2.6,5.4,5.1,8.1,7.6c2.4,2.3,5.1,2.8,8.3,1.6
				c2.1-0.8,4.4-1.1,6.7-1.6c0.2,0.3,0.4,0.5,0.5,0.8C323.4,185.8,322.8,187.1,322.1,188.6z M331,223.2c2-13.9-4.9-32.5-11.9-32.6
				c2.5,3.4,4.9,6.6,7.4,10c-0.3,0.9-0.7,2-1.2,3.7c-0.9-1.1-1.4-1.8-1.9-2.5c-2.1-2.9-4.1-5.9-6.3-8.7c-0.4-0.5-1.7-0.5-2.6-0.7
				c6.2,8.4,6.2,8.4,7,12.2c1.4,1.3,2.8,2,3.2,3c1.8,4.2,3.4,8.6,5.1,12.9C330.2,221.4,330.6,222.1,331,223.2z M337.3,156.7
				c-10.2-3.8-18.8,1.5-27.9,2.8C318.8,160.3,328.1,160.8,337.3,156.7z M331.4,141.1c-0.4-1-0.7-1.7-1.1-2.5
				c-0.8-1.5-0.8-3.9-3.5-3.5c-3.1,0.4-3.7-1.4-3.4-3.9c0.1-1.1,0.5-2.2,0.6-3.3c0.1-1,0.3-2.3-0.2-3.1c-1.9-4-4.1-7.8-6.1-11.8
				c-0.8-1.6-1.6-1.9-3.3-1.3c-7,2.4-14.4,2.8-21.5,1.7c-15.1-2.4-29.9-6.1-43.8-12.7c-3.7-1.7-7.4-3.3-11.2-4.6
				c-10.2-3.4-20.6-4.7-31.8-1.8c-1.7,0.4-3.5,0.3-5.3,0.4c0-0.3-0.1-0.6-0.1-0.9c4.7-2.4,10-2.8,15.1-3.1
				c5.1-0.3,10.3-0.1,15.5-0.1c0-0.1,0-0.2,0-0.3c-6.2-0.6-12.5-1.3-18.9-2c0.2-0.5,0.4-1.4,0.6-1.4c4.3-0.1,8.6-0.1,12.8-0.1
				c-13.8-4-27.3-1.9-40.9,2.4c0.8-1.4,1.7-2.6,3-3.3c7.4-3.7,14.8-7.6,22.4-10.6c5-2,10.1-5.1,16-2.6c0.1,0,0.4-0.1,0.5-0.1
				c3-0.4,6-1,9-1.2c7.4-0.4,14.7,0.6,21.5,3.6c2.5,1.1,4.8,2.6,4.6,5.8c-0.2,3-2.8,3.9-5.2,4.5c-4.4,1.1-8.7,2-12.8,2.9
				c8.1,3,16.5,5.9,25.7,6.1c-1-0.5-2-0.9-3-1.3c-2.9-1.4-3.5-4.4-1.3-6.7c1-1,2.2-1.8,3.5-2.4c2.9-1.2,5.8-2.5,8.8-3
				c6.6-1.1,13.2-1.6,19.7-2.4c-0.9-0.5-2.1-1.2-3.4-1.9c0.1-0.3,0.2-0.6,0.4-0.9c3,0.8,5.9,1.5,9.5,2.5c-1.5-3.3-3.9-4.6-6.2-5.8
				c-0.4-0.2-1.2,0.2-1.7,0.5c-4,1.6-7.9,3.4-11.9,4.8c-1.3,0.5-2.8,0.2-4.2,0.3c0-0.4-0.1-0.7-0.1-1c0.8-0.2,1.6-0.5,2.3-0.6
				c5.6-0.6,10.8-2.5,13.9-7.2c2.5-3.7,4.7-7.4,9.1-9.3c-0.6-0.4-0.8-0.6-1-0.6c-4.4-0.2-8.8-0.4-13.3-0.5c-0.6,0-1.3,0.2-1.9,0.4
				c-4.2,1.4-8.4,2.7-12.5,4.2c-2.8,1-4.6,0.2-6.2-2.4c3.4-0.8,6.5-1.4,9.6-2.1c-1.4-0.5-2.7-0.7-4-0.7c-1.3,0-2.7,0-3.9,0
				c0.3-1.5,0.4-2.6,0.7-3.7c0.4-1.6,3.9-2.7,4.6-1.4c1.5,2.7,3.1,0.9,4.8,0.5c-3-3.8-3-4-7.5-1.9c-11.8,5.4-23.8,7.6-36.5,3.3
				c-2.1-0.7-4.6-0.6-7-0.5c-4.2,0.2-8.4,1.3-12.5,1c-10.8-0.8-21.6-2-30.8,5.7c-0.5,0.4-1.4,0.3-2.9,0.6c2.2-4.3,6-5.3,9-7.5
				c-3,0.9-5.8,1.8-8.4-0.8c-0.3-0.2-1.3,0.2-1.9,0.5c-3,1.7-5.9,4-9.1,5c-5.2,1.7-9.7,4.3-13.7,8c-0.7,0.6-1.8,0.7-2.9,1.1
				c-0.1-1-0.2-1.7-0.3-2.9c-5.3,5.3-10.2,10.3-15.2,15.2c-0.8,0.7-1.8,1.2-2.7,1.7c-0.7,0.4-1.6,0.5-2.2,1
				c-5.4,4.6-10.7,9.4-16.3,13.7c-3.5,2.7-5.3,6.6-7.2,10.2c-2.3,4.4-3.8,9.3-5.6,14.1c-0.6,1.5-1.2,2.9-1.6,4.5c-0.2,0.9,0,2,0,3
				c0,1,0.1,2.7,0,2.8c-3,0.5-2.1,2.8-2.1,4c-1.4,0.6-2.5,1-3.3,1.4c0.5,2.8,1.2,5.3,1.5,7.8c0.4,3.7-1.1,7.8,2.6,10.7
				c0.1,0.1,0,0.5-0.1,0.8c-0.3-0.1-0.5-0.2-0.8-0.4c-1.1,1.9-2.2,3.7-2.8,4.8c0.7,2.4,1.3,4.3,1.8,6.2c0,0.1-0.3,0.4-0.6,0.6
				c-1.1,0.7-2.1,1.5-3.3,1.9c-3.1,1.1-5.9,2.5-7.9,5.7c2-0.2,3.6-0.3,5.2-0.6c1.6-0.4,3.6,0.5,4.8-1.8c0.3-0.7,3.1-1.2,3.6,1.3
				c0.1,0.5,0.4,1,0.8,1.3c2.4,1.7,0.7,2.4-0.8,3.1c1.1,3.2,2,3.7,4.8,1.5c2.8-2.2,5.8-2.4,8.7-1.3c2.3,0.8,4.6,2.2,6.5,3.7
				c1.6,1.2,2.7,3.1,4.2,4.5c3.3,3,6.3,7.1,10.3,8.6c3.7,1.4,7.2,3.4,11,4.5c4.7,1.4,9.4,2.5,14.2,3.7c6,1.4,11.5,0.8,16.6-3.1
				c0.9-0.7,1.8-1.2,2.7-1.6c3.5-1.5,7.3-1.1,11.1,0c5.4,1.6,9.8,4.3,10.7,11.2c2.1-1.9,3.7-3.3,5.3-4.7c-0.1-0.1-0.2-0.2-0.3-0.4
				c-0.7,0.3-1.4,0.6-2.2,0.9c-0.2-0.1-0.4-0.3-0.6-0.4c1.4-3.2,2.7-6.4,4.2-9.6c0.1-0.2,1,0,1.6,0c-0.1,1.5-0.3,2.8-0.4,4.1
				c0.9-1.3,1.2-2.7,1.7-4c0.4-1.3,1.1-2.5,1.7-3.8c0.3,0.1,0.7,0.2,1,0.3c0.1,1.7,0.2,3.5,0.4,5.1c7.1,1.5,21-5.4,19.8-10
				c-0.5-0.2-1.1-0.4-1.7-0.6c-2.4,5.6-6.7,8.8-11.8,8.2c3-4,7.2-6.1,10.5-9.2c-0.5-0.9-1.5-2.1-1.7-3.3c-0.2-1.6-0.4-3.8,0.4-4.8
				c2.2-2.3,4.8-4.8,7.7-6c4.7-1.9,8.6-4.5,11.9-8.3c2.1-2.5,4.1-4.9,6.1-7.4c4.4-5.3,9.9-8.9,16.8-10.2c5.1-1,10.3-0.7,15.4-2.7
				c2.6-1,4.7-1.7,5.9-4.3c1-2.1,2.8-2.9,5.2-2.4c0.7,4.3-3.6,5.6-5.2,8.7c0.8,0.2,1.5,0.3,2.1,0.5c2.5,0.8,4,0.2,5.8-2
				c2.6-3.2,6-6,10.8-6.3c1.2,6.4-4.4,7.4-7.9,10.1c2.7,1.6,5.1,0.7,7.4,0c1.7-0.5,3.5-1.3,5.2-1.2
				C325.8,146.5,328.3,143.5,331.4,141.1z M327.7,239.4c1.1-3.9,2-7.9,0.7-12c-0.6,1.2-0.9,2.4-1.2,3.6c-1.3,5.5-2.5,11-4,16.4
				c-0.3,1.2-1.4,2.3-2.2,3.4c-0.3-0.2-0.7-0.3-1-0.5c1.3-4.2,2.5-8.3,3.8-12.4c-0.2-0.1-0.4-0.2-0.7-0.3
				c-3.3,9.5-12.7,15.4-14.4,26.2c2.5-0.9,5.4-1.1,6.7-2.6C321.1,254.8,325.4,247.6,327.7,239.4z M326.6,221.4
				c0.1-0.4-0.2-1.2-0.6-1.3c-0.4-0.2-1.3,0-1.5,0.3c-2.1,4.8-6.7,9-2.8,15.5C323.5,230.8,325.1,226.1,326.6,221.4z M323.2,214.3
				c0.5-1.2,0-2.8-0.1-4.2c-1.4,2.4-2.3,4.6-3.2,6.9c-2.8,7-6.4,13.6-11.3,19.5c-2.5,3-4.4,6.5-6.6,9.7c-0.7,1-1.6,1.9-2.5,2.8
				c-0.6,0.7-1.7,1.2-1.9,2c-0.9,3.9-3.5,6.4-6.6,8.5c-5.4,3.6-10.9,7.1-16.3,10.6c-0.4,0.3-1,0.7-1.1,1.1c-0.6,2-1,4-1.6,6.4
				c1.6-0.9,3.1-1.9,4.7-2.7c1.5-0.8,3.1-2.2,4.5,1.3c5.3-3.8,10.4-7.3,15.4-10.9c0.4-0.3,0.6-1,0.9-1.5c0.5-0.9,0.8-2.1,1.6-2.7
				c1.7-1.4,4.7-1.6,4.6-4.9c0-0.4,0.9-0.8,1.4-1.2c0.6-0.5,1.3-1,1.8-1.6c2.2-2.3,4.4-4.6,6.5-6.8c1.9-2.4,3.7-4.8,5.7-7.1
				c2.2-2.5,0-4.3-0.3-7c-3.3,4.7-7.3,8.4-5.5,14.2c-0.8-0.6-1.7-1.3-2.7-2.1c-0.5,0.6-1.3,1.6-2.1,2.5c-3.8,4.6-7.5,9.1-11.4,13.6
				c-1.1,1.3-2.2,2.9-4.8,2.1c0.7-0.9,1.2-1.7,1.8-2.3c5.7-7,11.6-13.9,17.2-21c2.1-2.6,4.5-5.4,3.8-9.3c0-0.2,0.4-0.6,0.6-0.9
				C320,225,321.1,219.4,323.2,214.3z M324.7,259.8c-1.1-0.7-2.1-1.4-3.1-2c-0.5,0.8-0.9,1.7-1.6,2.3c-3,2.6-4,8.9-10.2,6
				c-0.1-0.1-0.4,0.1-0.6,0.1c-1-0.1-1.9-0.2-3.1-0.3c0.2-2,0.4-3.7,0.6-5.9c-0.9,0.9-1.6,1.5-2.1,2.2c-0.8,1-1.2,2.3-2.1,3.2
				c-4.5,4.8-10.1,7.9-15.9,10.7c-3.7,1.8-7.4,3.5-11,5.2c5.2,3.3,9.8,1.3,14.2-0.7c-0.4-0.6-0.7-1.1-1-1.5c0.5-0.3,1.1-0.8,1.6-0.8
				c3.3,0.5,5.8-0.9,8.2-3c0.7-0.6,1.8-0.8,2.7-1.2c0.3,0.3,0.5,0.6,0.8,0.8c-0.6,0.8-1,1.9-1.8,2.3c-2.1,1.1-2.6,2.8-2.3,5.7
				c5-3.3,9.6-6.4,14.1-9.6c0.7-0.5,1.6-2.1,1.3-2.5c-2.2-3.4-0.4-3.4,2.2-2.9c0.4,0,0.8,0,1.1-0.2
				C319.8,265.5,323,263.3,324.7,259.8z M319.9,313.1c-0.1-0.3-0.2-0.6-0.3-0.9c-10.8,0.4-21.6,0.8-32.3,1.2
				c2.5,1.3,20.5,3.2,24.6,2.3C314.6,315.1,317.2,314,319.9,313.1z M319.2,208.4c1-5.3-2.6-11.4-7.6-13.2c-0.9-0.3-1.9-0.2-2.4-0.2
				c0.6,3,1.2,5.7,1.6,8.4c0.1,0.6-0.4,1.8-0.8,1.9c-2.4,0.3-1.9,2.1-1.8,3.5c0.6,7.5-1.7,14.1-6.4,19.6
				c-4.8,5.7-9.9,11.1-15.2,16.3c-5,5-10.4,9.7-10.6,18.3c-1.6-1.3-3.2-2.5-5-3.9c-2.6,1.6-5.3,3.3-8,5c-0.4,0.3-1.1,0.9-1,1.1
				c1.3,2.8-1.1,2.5-2.5,3.2c-0.8,0.4-1.7,0.9-2.3,1.5c-2.3,2.9-4.7,5.7-6.6,8.8c-1.5,2.5-2.1,5.5-3.1,8.2c0.2,0.1,0.5,0.3,0.8,0.4
				c3.5-2.9,7-5.9,10.6-8.8c3.2-2.6,5.1-6.8,9.4-8c0.2-0.1,0.2-0.6,0.4-0.9c0.5-0.7,0.9-1.6,1.5-1.9c2.3-0.9,4.6-2,6.7-3.3
				c5-2.8,9.4-6.4,13.6-10.4c2.1-2,3.2-4.9,5.3-6.9c2.9-2.7,5.8-5.4,7.8-8.9c1.2-2,2.8-3.8,4.3-5.6
				C313.5,225.5,317.4,217.5,319.2,208.4z M314.5,155.3c-1.1-1.2-1.7-2.6-2.8-3c-14.2-6.3-28.5-5.3-42.6,0.2
				c-4.8,1.9-8.5,5.3-11.2,9.7c0.7-0.1,1.3-0.3,1.8-0.6c14.1-6.9,28.9-8.3,44.1-5.3C307.3,156.9,310.5,156.9,314.5,155.3z
				 M311.6,88.5c1.3-2.9,0.9-4.8-1.9-6c-2.6-1.1-5.6-1.9-8.4-2c-4.6-0.1-9.3,0-13.8,0.9c-5.6,1.1-11,2.8-16.5,4.5
				c-1,0.3-2.2,2-2.1,2.9c0.1,1,1.4,2.2,2.5,2.7c3.5,1.8,8.3,0.8,12-2.6c-1.3-0.1-2.2-0.4-2.6-0.1c-1.6,1.1-4.3,1-5.2-0.6
				c-0.3-0.4-0.2-1.4,0-1.8c1.6-2.2,10.3-1.6,11.1,0.9c0.5,1.3,0,3.4-0.9,4.5c-0.8,1-2.6,1.6-4,1.8c-3.1,0.5-6.3,0.7-9.5,1
				c0,0.3,0,0.6,0,0.9c8.7,0,17.3,0.3,25.9-0.1C303.6,95.2,309,94.3,311.6,88.5z M308.8,110.2c2-0.6,4-1.3,6.1-1.9
				c-2-4.1-3.7-7.8-5.3-11.2c-17.4,3.2-34.5,0.7-51.7-0.7c0.5,0.3,1.1,0.7,1.7,1c8.6,3.7,17.3,7.4,25.9,11.2
				C293,112,300.8,112.5,308.8,110.2z M318.5,167.8c-4.1-1.8-8.2-3.2-12.4-4.4c-3.5-1-3.5-1.1-1.7-4.5c-8.7-1.3-17.2-1.5-25.7,0.1
				c-1,0.2-1.6,2.2-2.4,3.4c0.3,0.3,0.6,0.5,0.9,0.8c1.5-0.9,3-1.9,4.8-3c0,1.3,0,2,0,3.5c4.2-1.1,8.1-2.1,12.5-3.1
				c-0.7,1-1.2,1.8-1.9,2.9c3.6,0.4,7.1,0.7,10.6,1.1c0,0.3-0.1,0.6-0.1,0.9c-6,0-12.1,0-18.2,0c0.5,1,0.9,1.7,1.2,2.4
				c-0.1,0.2-0.2,0.4-0.3,0.6c-10.4-6.3-20.7-1.7-31-0.3c1.4,0.4,2.8,0.3,4.2,0.4c7.1,0.6,14.4,0.6,21.3,2.1
				c6.4,1.4,12.7,2.5,19.3,1.9C306.2,172,312.3,170.5,318.5,167.8z M305.9,201.8c0.1-0.9,0.9-1.7,1.5-3c-1.6-3.3-8.1-4-13.8-0.8
				c0.4,2.1,3.7,4.2,0,6.5c3.5,13.5,0.2,22.9-8.9,33.1c-3.7,4.1-7.5,8.2-11.5,12.1c-1.9,1.9-1.3,3.8-0.6,5.6
				c0.3,0.9,1.3,1.6,2.1,2.6c1.4-6.6,5.5-11.7,10.6-16.1c5.5-4.8,10.4-9.8,14.4-16C304.8,218.1,305.3,210.1,305.9,201.8z M304,324.2
				c1.1-0.9,2.1-1.8,3.2-2.7c-1.1-0.9-2.2-2.3-3.4-2.5c-3.9-0.5-8-1.3-11.8-0.7c-7.6,1.3-14.9,0.7-22.4-0.7
				c-12.8-2.5-25-6.3-35.4-14.6c-0.2-0.1-0.5-0.1-1.2-0.1c1,0.9,1.6,1.6,2.4,2.1c5.9,3.7,11.7,7.6,17.7,11
				c9.9,5.5,20,10.5,31.6,11.3c0.6,0,1.2,0.8,1.8,1.3c-0.2,0.4-0.4,0.7-0.6,1.1c-23-5-44.4-13.2-61.5-30.4c0.1,0.3,0.1,0.6,0.2,0.9
				c4.1,7.2,9.4,13.5,16,18.4c17.7,13.3,37,19.6,59.2,14.4c3.9-0.9,5.1-3.4,3.4-7c-0.1-0.3-0.1-0.7-0.1-1.2
				C303.3,324.5,303.7,324.4,304,324.2z M289.8,176.6c4.2,4.9,9.5,6.6,15.3,8.8C301,180.2,297.6,175.4,289.8,176.6z M296.1,283.6
				c-1-0.9-1.6-1.4-2.1-1.9c-2.2,1-4.4,2.1-6.7,3.1C290.7,287.6,292.8,284.3,296.1,283.6z M287.4,229c5.8-7.4,7.2-15.7,3.3-24.8
				c-0.4,2.9-1.7,1-2.9,0.5c1.2,2.7,1.6,4.9,0.5,7.7c-1.7,4.5-2.6,9.4-4,14c-0.2,0.8-1.4,1.4-2.3,2.2c1.8-7.3,3.5-13.9,5.3-20.9
				c-1.5,0-2.2,0-3.2,0c3.4-4.7,0.7-8.5-1.6-12.4c-0.1,1.6-0.2,3.2-0.3,4.8c-0.7,9.2-3.5,17.9-6.2,26.6c-0.3,1-0.9,2.6-0.5,2.9
				c2,1.7,0.1,2.5-0.5,3.7c-0.5,1-1,2.1-1.2,3.1c-0.2,1,0.4,2.4-0.1,3.1c-2.7,3.4-5.4,6.7-8.5,9.7c-1.7,1.7-3,3.2-2.8,6.3
				c1.2-0.6,2.3-0.8,2.9-1.5c3.5-4,6.9-8.2,10.5-12.2C279.5,237.7,283.8,233.6,287.4,229z M290,203.2c2-4.7,1.1-6.3-4.9-9.2
				C286.6,196.9,288.2,199.8,290,203.2z M287,40c-0.2-0.1-0.4-0.3-0.6-0.4c-0.1-1.1-0.2-2.1-0.2-3c-5.1,2.9-10.4,5.8-15.7,8.8
				c-3.9,1.1-7.7,2.2-11.5,3.3c0.1,0.4,0.2,0.8,0.4,1.1c3.9-1.2,7.9-1.7,11.4-4.2c0.8,0,1.6,0,3,0c-3.2,4.6-8.3,4.6-12.2,6.3
				c-3.9,1.7-8.8,1.4-13.2,2C263.1,54.5,276,49.6,287,40z M284.5,288.8c0.1-0.3,0.2-0.5,0.3-0.8c-2.8-1-5.6-2-8.3-2.9
				c-0.1,0.3-0.2,0.6-0.3,1C278.9,286.9,281.7,287.8,284.5,288.8z M279.5,315.5c0-0.3,0.1-0.5,0.2-0.8c-3.3-1.6-6.6-3.1-10-4.7
				c-0.5,2.7-2.5,2-4,1.6c-7.4-1.9-14.5-4.6-20.7-9.3c-0.6-0.4-1.4-0.7-2.1-0.9c-1.4-0.3-3-0.1-4.2-0.8c-2.6-1.4-4.9-3.3-7.3-5
				c-0.1,0.1-0.3,0.2-0.4,0.3c1.2,1.4,2.1,3.1,3.5,4.3c8.1,6.6,17.5,10.2,27.6,12.3C267.8,313.7,273.7,314.5,279.5,315.5z
				 M278.4,195.9c1.5-6.3-0.4-10.5-4.8-11.5C275.1,188,276.8,192.1,278.4,195.9z M277.4,212.3c0.6-2.5,0.7-5.2,1-7.8
				c-0.8,0.3-1.6,0.5-2,0.6c-0.7-4.6-1.3-8.9-1.9-13.1c-0.3,0-0.6,0.1-1,0.1c0.1,0.4,0.1,0.9,0.2,1.3c1.3,6.9,1.2,13.7-2,20.1
				c-0.4,0.9-1.3,1.5-2.1,2.5c-0.6-1.4-0.9-2.1-1.2-2.8c-2.7,6.3-5.6,12.4-7.8,18.7s-8.4,10.6-8.9,17.8c-0.1,1.5-1,2.9-1.5,4.3
				c-0.2,0.6-0.5,1.4-1,1.6c-3.2,1.4-2.9,4.7-4.1,7.4c0.9,0,2.1-0.1,2.4-0.6c3.5-5.7,8.8-9.4,13.9-13.6c3.7-3,8.2-5.5,8.6-11.4
				c0.2-2.6,2.1-4.9,2.9-7.5C274.4,224.1,276,218.2,277.4,212.3z M275.8,160.3c-0.1-0.3-0.2-0.6-0.3-0.9c-5,1.4-10,2.9-14.9,4.3
				c0.1,0.4,0.2,0.8,0.3,1.2C265.6,162.4,272,165.5,275.8,160.3z M270.9,274.5c-0.2-0.3-0.4-0.5-0.7-0.8c-0.6,0.2-1.3,0.2-1.7,0.6
				c-1.8,1.8-3.6,3.6-5.2,5.6c-0.8,1-1.4,2.2-2.1,3.4c0.3,0.2,0.6,0.5,0.9,0.7C265.1,280.8,268,277.6,270.9,274.5z M269.8,210.2
				c4.5-7.9,2.1-14.9-1.9-21.4c0.4,3.4,0.9,6.9,1.2,10.5C269.4,203,269.5,206.6,269.8,210.2z M261.2,224.9c4.5-8.6,6.6-17.8,6-27.6
				c-0.1-1.5-0.6-3-1-4.4c-0.9,3.5-1,6.9-1.6,10.3c-1.4,8.7-6.2,15.9-10.9,23c-2.1,3.1-4.4,6.2-3.7,10.4c0,0.3-0.4,0.7-0.6,1
				c-0.2,0-0.3-0.1-0.5-0.1c0-1.3,0-2.5,0-4.6c-5.1,8.9-13.2,14.9-15.1,24.9c-0.3,0.2-0.5,0.3-0.8,0.5c-0.1,0.1-0.2,0.1-0.3,0.2
				c0-0.8-0.1-1.5-0.1-2.2c-7.6,9.8-12.9,20.1-17.3,31c-0.4,1-1,1.8-1.6,2.7c-0.4-0.2-0.9-0.4-1.3-0.6c1.4-3.8,2.8-7.5,4.2-11.4
				c-1.1,0.7-2.2,1.4-3.2,2c-0.3-0.3-0.5-0.6-0.8-0.9c0.9-1,1.9-1.9,2.8-2.9c1.1-1.3,5.1-0.9,2.6-4.4c-0.1-0.1,0.2-0.5,0.4-0.7
				c1-1.1,2.1-2.2,3.1-3.3c1.3-1.6,2.7-3.2,4.1-4.8c-0.8-0.6-1.3-0.9-1.3-0.9c4.1-5.2,8.1-10.2,12.1-15.3c-0.2-0.2-0.4-0.4-0.6-0.7
				c-0.3,0.1-0.6,0.3-0.9,0.3c-0.4,0-0.8,0-1.2,0c-0.2-0.2-0.4-0.4-0.6-0.7c6-2.4,9.8-6.5,11.1-11.8c2.3-2.4,4.4-4.2,6-6.4
				c1.4-1.9,2.1-4.4,3.4-6.5c1.4-2.2,3.5-4.1,4.7-6.4c3.7-7.4,6-15.2,4.4-23.7c-0.4-2-1.3-2.9-2.6-3.1c0.3,4,1,8.1,0.7,12.1
				c-0.5,6.3-3.5,11.8-7.6,16.4c-5.6,6.3-11.6,12.2-17.4,18.2c-0.6,0.6-1.1,1.4-1.4,2.2c-1.8,3.9-3.1,8.1-7.5,9.9
				c-0.4,0.2-0.7,0.6-1.1,0.9c0.3,0,0.5,0.1,0.8,0.1c-0.4,2.1-0.6,4.3-1.5,6.2c-0.5,1.3-1.9,2.4-3,3.3
				c-12.4,9.6-17.6,23.1-21.3,37.6c-1.6,6.1,1.6,10.2,5.2,14.3c0.4,0.5,1.5,0.8,2.1,0.6c1.9-0.6,4.3-1,5.4-2.4c2.7-3.3,5-7,7-10.9
				c2.6-5.1,4.4-10.7,7.3-15.6c2.7-4.6,5.7-9.1,8.6-13.6c2.8-4.2,5.6-8.3,8.3-12.6c0.6-0.9,1.3-1.9,1.7-2.9c1.3-2.7,2.2-5.5,3.7-8.1
				C253.8,237.4,257.8,231.3,261.2,224.9z M266.8,183.7c-1.4-0.9-3.2-2.2-5.3-3.2c-3.4-1.6-7-2.8-10.3-4.5
				c-6.3-3.4-6.3-3.6-11.9,1.1c-1.1,0.9-2.6,3-2.2,3.7c0.8,1.6,1.8,3.7,4.4,3.6c1.6-0.1,3.2,0,4.8-0.1
				C253.3,184.1,260.2,183.8,266.8,183.7z M261.8,102.9c0.1-0.3,0.2-0.6,0.4-0.9c-6.9-3.1-13.9-6.3-20.8-9.4
				c-0.2,0.4-0.3,0.8-0.5,1.1C247.8,96.8,254.8,99.8,261.8,102.9z M259.8,261.9c0.9-1,1.7-2,2.3-2.8c-1.1-1.6-2-3-3-4.5
				c-4.2,2.2-7.2,5.6-9.2,9.7c-0.8,1.6-1.6,2.5-3.7,2c-0.9-0.2-2.7,0.5-3,1.2c-2.6,5.8-5.4,11.6-7.1,17.7c-0.9,3,0.3,6.6,1,9.9
				c0.7,3.1,3.6,0.6,5.3,1.7c1,0.6,2.4,0.7,4.1,1.1c-0.5-2.6-1.3-4.5-1.3-6.5c-0.2-7.9,1.9-15.1,7.3-21.1
				C254.7,267.5,257.2,264.7,259.8,261.9z M258.5,197.2c0.7-5.5-2.6-9.8-7.6-10.2c4,4.7,4.4,10,3.4,15.8c-1.2,6.5-6.8,10.1-9.6,15.5
				c-1.5,2.8-4.4,4.8-6.9,7c-7.8,6.7-16.1,12.9-23.5,20c-8.9,8.6-17.2,17.8-23.9,28.3c-2.5,3.9-4.8,7.8-7.4,11.9
				c3.4,1,3.2,2.9,1.9,4.9c-1.2,2-2.7,3.8-4.1,5.7c-1,1.3-1.9,2.6-3.1,4.3c2.9,0.3,3.4,1.3,2.2,3.2c-3,4.8-3.3,10-2.3,15.3
				c0.7,3.9,1.8,7.6,5.2,11c0.2-1.6,0.3-2.5,0.5-3.4c0.1-0.6,0.6-1.5,0.9-1.5c0.6,0.1,1.4,0.4,1.7,0.9c0.6,1.1,0.8,2.6,1.5,3.6
				c0.8,1,2.2,2.2,3.2,2.1c2.6-0.3,3.6-2.7,3.8-5c0.1-0.8-1-1.8-1.7-2.6c-0.9-1.2-2.6-2.2-2.8-3.4c-0.6-4.4-1-8.8-0.9-13.1
				c0.1-2.7,0.4-5.1-1.7-7.3c0.3,2.7,0.7,5.2,1,8.2c-1.2-0.7-1.8-1-2.6-1.5c0,1.9,0.4,3.7-0.1,5c-0.5,1.2-2.2,1.8-3.4,2.6
				c-0.3-0.2-0.5-0.5-0.8-0.7c0.3-1.1,0.6-2.2,0.8-3.3c0.1-0.8,0.4-1.9,0-2.3c-1.8-1.8-0.7-3.1,0.5-4.5c0.6-0.7,1.3-1.4,1.5-2.3
				c1.6-6.6,5.2-12,9.3-17.3c0.8-1.1,1.2-2.5,2-4.4c0.9-0.6,2.6-1.7,4.4-2.9c-0.1-0.2-0.2-0.3-0.3-0.5c-2,0-3.9,0-5.9,0
				c0-0.3-0.1-0.6-0.2-0.9c2.8-0.7,5.5-1.4,8.3-2.1c0-0.1,0-0.3-0.1-0.5c-1.4-0.2-2.7-0.3-4.1-0.5c0-0.3-0.1-0.5-0.1-0.8
				c1.1-0.3,2.1-0.7,3.2-1c2-0.5,4.5-0.4,5.8-1.6c3.9-3.5,7.4-7.5,11.2-11.5c-2.4-0.9-1.6-2.2-0.4-3.4c0.8-0.8,2.1-1.4,2.4-2.3
				c1.3-4.3,4.8-6.6,7.9-9.2c1.4-1.2,3.3-3.3,3-4.5c-0.6-2.4,0.9-3,2-4.1c6-6.1,11.9-12.1,17.9-18.1
				C255.6,210.6,257.6,204.1,258.5,197.2z M265.9,307.8c-6-4.8-11.9-9.6-17.7-14.2C248.4,297.6,259,306.2,265.9,307.8z M260.6,80.3
				c-1.8-1.4-3.2-3-4.9-3.7c-2.7-1.1-5.7-1.3-8.4-2.3c-3.6-1.3-5.5,0.5-7.5,3.1c4.5,0.8,4.5,0.8,5.2,2.4c-1.3,0-2.6,0-3.9,0
				c-3.2-0.1-6.8-1.3-9.4,1.1c-2.5,2.2-4.7,1.1-6.9,0.3c-4-1.4-7.9-1.3-12.2-0.2c1.1,0.4,2,0.9,2.8,1c4.8,0.7,9.5,1.5,14.3,2
				c6.2,0.6,12.5,1.2,18.8,1.2C252.8,85.2,256.8,83.6,260.6,80.3z M251.9,197.5c0.2-4.9-2.5-8.8-6.7-10c-1.8-0.5-3.2-0.5-4.4,1.6
				c-4.1,6.9-10.2,11-18.1,12.3c-3.9,0.7-6.9,2.4-9.3,5.6c-1.8,2.4-5.1,3.8-6.6,6.3c-1.5,2.6-1.2,6.3-2.6,9.1
				c-2.4,4.8-5.4,9.3-8.5,13.7c-10.5,14.6-23.3,26.1-40.9,31.4c-1,0.3-2,1-2.7,1.9c-4.7,5.5-9.3,11.1-14.1,16.6
				c-0.9,1-2.1,1.7-3.5,2.8c-0.7-7.7-2.1-14.3-6.3-20.4c-2.1,4.2-4.3,7.9-5.9,11.9c-1.5,3.8-3.5,6.5-8,6.8c-1.1,0.1-2.9,1.3-3.1,2.2
				c-1.2,5.5-4,10.7-3,16.7c0.6,3.6,0.4,7.2-1,10.8c-1.8,4.7,2.6,8.3,3,12.8c4.8,3.2,9.2,7.3,14.4,9.3c9.3,3.6,19.1,6.4,28.8,8.6
				c18.6,4.1,37.4,4.4,56.2,1.8c1.6-0.2,3.2-0.6,5.3-1c-6.2-5.9-9.9-12.8-12.8-20.1c-0.9-2.2-2.1-2.6-3-2.2
				c-1.6,3.1-2.3,5.9-4.1,7.4c-1.9,1.6-5,2.7-7.4,2.4c-2.6-0.3-5.5-1.9-7.2-3.9c-2.1-2.6-3.2-6.1-4.5-9.2
				c-2.7-6.5,0.2-13.4-1.2-20.2c-0.6-2.9,0.5-7.3,4.4-9.3c1.3-0.7,2.1-2.2,3.3-3.5c-2.7-1.2-3-1.3-2.1-3.6c1.4-3.7,2.8-7.7,5-11
				c10.1-14.9,21.7-28.5,36-39.7c5.8-4.5,11.3-9.4,17-14.1c-2-1.5-1-2.2,0.1-3.1c2.7-2.4,5.6-4.8,8-7.5
				C249.7,206.9,251.7,202.5,251.9,197.5z M240.4,74c-0.1-0.4-0.3-0.8-0.4-1.2c-4.1,0.5-8.3,1.1-12.4,1.7c-1.7,0.3-3.5,2.1-4.8-0.6
				c-0.1-0.2-0.7-0.1-1.1,0c-7.2,2.1-14.5,4-20.8,8.4c0.7-0.1,1.5-0.2,2.2-0.5c7.4-3.4,15.1-4.4,23.1-4.4c0.4,0,0.9-0.2,1.3-0.3
				c2.1-0.9,4.2-1.8,6.4-2.6c0.3-0.1,0.7,0.1,1.2,0.3c-0.4,0.9-0.7,1.6-1,2.4c0.2,0.2,0.4,0.3,0.5,0.5
				C236.5,76.5,238.4,75.3,240.4,74z M227,46.4c7.9-3.5,12.4-10.8,11.6-17.8c-1.6,1.8-3.1,3.8-4.9,5.3c-1.9,1.7-4.1,2.9-6.2,4.3
				c0.9,0.7,1.5,1.3,2.1,1.7c1.1-1,2.2-2,3.8-3.5C233.7,41.7,229.1,42.8,227,46.4z M235.8,273.1c-0.2-0.1-0.5-0.2-0.7-0.3
				c-2.3,5.6-4.6,11.2-7,16.8c-0.8,1.8-0.7,3.2,0.9,4.5c0.8-3.4,1.1-3.5,4.3-2.4c0.2-3.1,0.2-6.2,0.7-9.3
				C234.3,279.3,235.1,276.2,235.8,273.1z M234.6,337.9c0.3-0.2,0.5-0.4,0.8-0.5c-0.6-1.1-1-2.5-1.9-3.3c-4.8-4.8-8-10.4-9.9-16.9
				c-1.2-4.2-1.9-8.5-2.9-12.7c-4.1,3.7-4.4,4.8-2.3,9.6c1.3,3,3.1,5.7,4.7,8.6c1,1.9,2,3.9,2.9,5.8c-0.4,0.2-0.8,0.4-1.2,0.7
				c-3.6-2.6-5.1-6.8-7-10.3c-0.9,0.5-1.7,0.9-2.4,1.3v0c0,0,0-0.1,0-0.1c0-3.1,0-6.2,0-9.4c-2.4,0.4-3.2,1.3-2.4,3.2
				c0.9,2,1.6,4.1,2.4,6.2c0,0,0,0.1,0,0.2c0,0,0,0,0,0c2.2,3.5,4.1,7.2,6.7,10.4c1.9,2.3,4,5.2,8,4.3c0.6-0.1,1.4,0.8,2.1,1.3
				C233.2,336.5,233.9,337.2,234.6,337.9z M221,52.8c5.9-0.4,11.7-1.5,16.5-5.7C231.9,49.1,226.4,51,221,52.8z M226.9,350.3
				c2.2-1.7,1.2-3.2-0.3-4.7c-1.4-1.5-2.7-3.1-4.1-4.7c-1.4-1.5-2.7-3.5-4.5-4.4c-4.5-2.3-7.2-6-9.1-10.4c-0.5-1.3-1-2.7-1.6-4.3
				c-1.2,1.1-2.1,2-3.2,3c4.9,11,10.8,21.2,22.1,27.4C226.5,351.3,226.5,350.6,226.9,350.3z M223,42.6c-3.9-1.1-3.9-1.1-6.8,1.3
				c0,0,0,0-0.1,0c0,0,0,0.1,0,0.1c-5.5,2.2-10.9,4.3-16.4,6.5c4.6-0.6,9-1.8,13.5-2.8c2.1-0.5,3-1.6,2.9-3.7c0,0,0,0,0,0l0,0
				c0.9,0.4,1.7,0.9,3,1.6C220.2,44.7,221.5,43.7,223,42.6z M224.5,336.1c-6.6-5.1-10.7-11.7-14.2-19.1
				C207.9,325.4,217.3,335.4,224.5,336.1z M202.3,321.9c3.6-2.2,5.5-5.6,6.3-9c-2.9-1.7-5.5-3.3-8.4-5c1.1,3.1,2.2,5.8,3.3,8.9
				c-1.8-0.9-3.3-1.6-5.1-2.5c0.8-3.2-3.4-7.3,0.4-10.7c0-3-0.4-5.7,0.1-8.3c0.7-4.1,2-8,3-12c0.1-0.5,0.2-1.1,0.3-1.6
				c-2,2.2-4.8,4.7-4.7,6.9c0.2,3.2-1.7,4.9-2.6,7.4c-2.9,8.1-7.6,16.1-0.4,24.5C196.4,322.7,199.1,323.8,202.3,321.9z M202.6,215
				c0.1-1.2,0.5-2.5,0.3-3.7c-1.2-6.5-8.5-10.9-15.7-9.6c-2.2,0.4-2.7,1.2-2.6,3.5c0.2,4.3,0.3,8.7-0.6,12.9
				c-2.7,12-8.3,22.8-15.7,32.6c-2.9,3.9-5.9,7.7-8.9,11.5c0.1,0.1,0.2,0.2,0.3,0.4c1.9-0.9,3.8-1.9,5.7-2.8
				c-0.2-0.1-0.4-0.3-0.5-0.4c0.5-1.2,1-2.3,1.6-3.5c0.9,0.4,1.8,0.8,3.1,1.4c0.1-0.4,0.1-1.1,0.3-1.7c0.3-1,0.7-1.9,1.1-2.9
				c0.9,0.4,1.8,0.9,3.2,1.5c0.1,0,0.8-0.5,0.9-0.7c0-1.6-0.3-2.9,0.1-4c0.2-0.5,1.5-0.7,2.4-1.1c0.2,1.1,0.4,1.7,0.6,2.8
				c1.6-1.4,2.8-2.6,3.8-3.5c-0.6-1-1.4-1.7-1.4-2.5c0-0.6,0.9-1.7,1.3-1.7c0.9,0,1.8,0.7,3.1,1.2c0.7-0.8,1.7-1.9,3.3-3.7
				c-2.4,0.5-3.7,0.1-3.1-1.7c0.3-0.9,1.5-1.6,2.3-2.4c0.6,0.9,1.1,1.8,1.8,2.9c1.6-2.2,3.4-4.7,5.3-7.3c-1.1-0.2-1.9-0.4-3.5-0.7
				c1-1.5,1.5-2.7,2.5-3.5c0.4-0.3,1.7,0.5,2.7,1c0.8-1.4,1.7-3.1,2.8-5c-1-0.2-1.7-0.3-3.3-0.6c0.7-1.5,1.1-3,2-3.9
				c0.3-0.3,1.9,0.5,3.4,1C201.7,219.1,202.2,217,202.6,215C202.7,215,202.6,215,202.6,215z M190.1,299.9c0.7-3.6,4.5-6.3,2.8-10.3
				c-3.6,0.7,0.9,6.1-4.2,5.9C189.3,297.1,189.7,298.5,190.1,299.9z M181.5,213.7c0.4-3.2,0.8-6.4-0.4-9.6c-2.3,0.9-4.2,2.1-6.1,2.2
				c-11.4,1.1-22.2-0.6-31.8-7.4c-1-0.7-2.2-1.2-3.3-1.4c-6.8-1.5-13.6-2.9-20.4-4.4c-6-1.3-10.3,2.3-10,8.3
				c0.7,13.8,5,26.7,9.8,39.6c5.3,13.9,15,26,17.4,41.7c2.7-3.6,4.7-7,7.2-9.8c5.5-6.3,11.4-12.4,17-18.6
				C171.4,242.6,179.3,229.6,181.5,213.7z M151.1,37.6c1.6-5.2,3.9-10.9-0.2-16.2c-4.5-0.4-6.5-5.2-3.8-9.4
				c-1.9-3.8-4.8-6.1-9.1-6.9c-7.9-1.5-18.3,4.6-21.3,12.6c-1.5,4-1.4,8,0.6,11.8c1.1,2,2.5,3.4,5.2,2.5c2.4-0.8,4.9,1.4,4.9,2.8
				c0,2.8,2,3.5,3.2,5.1c1.3,1.8,2.6,3.8,3.2,5.9c0.7,2.1,1.4,3.6,4.4,3.3c0.1-2.1,0.3-4.3,0.4-6.3c-1.1-0.4-1.9-0.7-2.8-0.9
				c0.9-0.9,1.5-1.5,2.1-2.1c-0.8-0.6-1.5-1.3-2.2-1.8c-0.8-0.5-1.7-0.8-2.5-1.2c0.1-0.2,0.1-0.5,0.2-0.7c1.2,0,2.4,0,3.6,0
				c0.1-0.2,0.2-0.4,0.4-0.7c-2-1.3-4-2.6-6-3.9c0.2-0.3,0.3-0.6,0.5-1c1.3,0.3,2.7,0.6,4.8,1.1c-2.1-3.8-3.9-6.9-5.7-10.1
				c0.4-0.2,0.7-0.4,1.1-0.6c5.5,3.8,6.1,10.6,9.1,15.8c0.7-0.9,1.5-1.8,2.2-2.8c0.2,0.1,0.4,0.3,0.6,0.4c-0.8,2.4-1.5,4.8-2.3,7.1
				c0.2,0.1,0.4,0.1,0.6,0.2c1.4-2.6,2.7-5.2,4.1-7.9c0.4,0.2,0.8,0.4,1.2,0.5c-0.5,1.5-0.9,3.1-1.5,4.5c-1.1,2.7-2.4,5.3-3.4,8.1
				c-0.6,1.7-0.7,3.4,1.8,4.3c-1,0.8-2.3,1.3-2.5,2.1c-1,4-1.8,8.1-2.7,12.2c1.5-2.6,3-5.2,4.1-8C146.2,51,149.1,44.4,151.1,37.6z
				 M138.9,52.3c-1.1-0.4-2.3-0.9-3.4-1.4c0,4.1,0,8.1,0,12.1c0.1,0,0.2,0,0.3,0.1C136.8,59.5,137.9,56,138.9,52.3z M124.8,266.8
				c1.4-2.2,1.6-3.9-0.2-5.9c-0.6,0.8-1.2,1.5-1.7,2.2c-8.1,11.5-16.3,23-24.4,34.5c-3.4,4.8-7,9.6-10,14.7
				c-2.5,4.2-2.2,4.4,2.2,7.1c1-3.3,1.5-6.6,3-9.5c1.5-3,3.6-5.8,6-8.1c3.9-3.9,7.2-8.1,8.4-13.7c0.5-2.6,2.4-4.3,5.1-5.2
				c1.6-0.5,3.2-1.8,4.1-3.3C119.9,275.4,122.1,270.9,124.8,266.8z M131.5,192.9c-3.2-3.6-6.1-7.4-9.6-10.7c-5.2-5-10-1.6-12.7,2.9
				c-0.5,0.8-0.5,3,0,3.3c1.8,1.1,1.7,2.3,0,4.6C117.2,189.3,124.1,191.7,131.5,192.9z M121.7,259.8c1.5-1.9,1.8-3.6,0.1-5.5
				c-3.7,4.9-7.1,9.9-10.9,14.4c-6.4,7.6-13.1,15.1-19.7,22.5c-4.2,4.7-8.8,9.1-13.1,13.7c-0.7,0.7-1.3,2.2-1,2.9
				c1.8,4.4,6,4.9,8.9,1.1c0.5-0.6,0.8-1.3,1.3-1.9c5.4-7.5,10.7-15,16.2-22.5C109.4,276.3,115.5,268,121.7,259.8z M120.4,73.5
				c0.3-6.2,1.3-12.4-0.6-18.6c-0.3-0.8-0.7-1.9-1.4-2.2c-3-1.4-3.8-3.9-4.3-6.8c-0.3-1.8-0.4-3.8-1.3-5.3c-3.5-6-9.1-8.7-15.8-9.7
				c-1.1-0.2-2.4,0.4-3.4,0.9c-4.1,2.5-4,8.8,0.1,12.7c1.2,1.2,2.7,2.1,3.8,3.4c4.3,4.8,8.4,9.8,11.9,13.9c2,0.8,3.3,1.2,4.5,1.7
				c-0.2-4.3-2.7-6.6-7.1-7.3c0.2-0.2,0.3-0.5,0.5-0.8c1-0.2,2-0.4,3.1-0.6c-0.5-2.1-1.5-3.4-3.9-3.2c-1.3,0.1-2.9,0-2.5-2.3
				c1.2,0.2,2.2,0.3,3.1,0.4c-1-1.9-1.9-3.6-2.8-5.3c0.4-0.2,0.7-0.4,1.1-0.7c4.8,3.8,7.2,9.2,9.6,14.6c0.6-1.2,1.3-2.4,1.9-3.7
				c0.4,0.1,0.8,0.3,1.2,0.4c-0.6,1.9-1.1,3.8-1.7,5.6c-0.9,2.4,0.8,6.5,2.4,7c0,5.9,0,11.6,0,17.3c0.2,0,0.4,0.1,0.6,0.1
				C119.8,81.3,120.2,77.4,120.4,73.5z M117.8,253.5c2.6-2.1,2.4-4.3,0.4-6.8C116.6,249.1,115.5,251.2,117.8,253.5z M115.1,245.6
				c0.4-1.4,1.5-3.1,1.1-4.3c-1.2-4.2-3-8.3-4.8-13.2c-1,1.7-2.5,3.2-2.2,4.1c1.3,4.5,3.2,8.9,4.8,13.3
				C114.4,245.5,114.8,245.5,115.1,245.6z M113.7,91.8c3.6-7.7,2.6-15.7,1.5-23.7c-0.1-0.8-1.4-1.5-2.4-2.6c0.8,2.8,1.7,4.9,1.9,7.1
				c0.3,3.4,0.2,6.8,0,10.3C114.5,85.8,114,88.8,113.7,91.8z M105.2,325.3c-0.5-2.2-0.9-4.3-1.5-6.8c-2,2.2-3.7,4.2-5.4,6.2
				C100.4,327.5,102.7,326.8,105.2,325.3z M103.6,112.5c0.6-7.3-1.4-20.4-3.9-27c-0.2-0.4-0.2-1-0.6-1.3c-2.3-1.7-4.5-3.6-6.9-5.1
				c-2.5-1.6-4.7-0.6-5.8,2.1c-2,5,1.9,8.1,3.7,11.8c0.3,0.6,0.8,1.2,1.4,1.6c2.7,1.7,4.8,3.6,3.5,7.3c-0.2,0.6,0.1,1.5,0.3,2.2
				c0.8,2.2,1.7,4.4,2.6,6.5c0.3,0.6,0.9,1,1.3,1.5c0.4,3.2,0.8,6.3,1.1,9.5c0.4-0.1,0.8-0.2,1.2-0.3c-0.8-3.1-1.6-6.2-2.3-9.3
				c-1.4-7-2.8-14-4.3-21c1.2,0.9,2.6,1.8,4.3,3c0.1,2.6,1.7,5.5,1.9,8.8C101.4,106,102.8,109.2,103.6,112.5z M102.2,314.7
				c3.5-3.1,2.4-6.4,1.3-10.1c-4.5,4.1-8.4,8.2-9.1,14.3c-0.1,1,0.3,2,0.5,3c0.3,0,0.7,0,1,0C98,319.5,99.8,316.7,102.2,314.7z
				 M96.4,204.6c3.2-4.7,0.7-10.2,2.6-15.1C92.7,193.8,91.3,201.3,96.4,204.6z M101.9,228.1c-6.6-0.4-12.2-2.8-17-7
				c-1.9-1.7-3.5-0.7-3.6,1.8c-0.3,5.1,4.5,10,9.6,9.8C95,232.5,98.7,230.8,101.9,228.1z M82.9,195.8c2.7-2.4,5.4-4.8,8.2-7.2
				C84.6,189.9,81.7,192.6,82.9,195.8z"/>
			<path class="st1" d="M369.4,192.6c0.4,13.7-0.2,27.3-2.8,40.7c-1.3,7-3.3,13.9-4.9,20.9c-0.6,2.5-1.8,3.4-4.6,1.7
				c6.8-20.8,9.5-42.1,8.7-64c0.6,0,1-0.1,1.3,0C367.9,192.1,368.6,192.4,369.4,192.6z"/>
			<path class="st1" d="M359.5,137c2,7.2,4.1,14.3,6.1,21.4c-3-0.2-4.4-1.3-4.9-3.5c-1.2-4.7-2.5-9.2-4-13.8
				C355.9,138.8,356.6,137.6,359.5,137z"/>
			<path class="st1" d="M362.1,192.9c0,3,0,6.1,0,9.1c-0.2,0-0.5,0-0.7,0.1c-1.7-4.7-3.5-9.5-5.3-14.2
				C359.7,187.5,362.1,189.4,362.1,192.9z"/>
			<path class="st1" d="M360.8,223.6c-0.6,3.7-1.2,7.6-2,11.5c0,0.2-1.6,0.5-1.8,0.2c-3.6-3.9-4.6-8.3-2.2-13.6
				C356.6,222.4,358.4,222.9,360.8,223.6z"/>
			<path class="st1" d="M356.4,152.5c0.1,0.3-0.1,0.7-0.2,1.6c-2.2-0.5-4.1-0.9-6-1.5c-1.8-0.6-2.8-5.6-1.4-6.8
				c1.3-1.1,2.7-1.8,4.1-2.7c0.7,1.3,1.5,2.7,2,4.1C355.6,148.8,355.9,150.7,356.4,152.5z"/>
			<path class="st1" d="M350.1,217.6c2.3-0.7,3.3,0.4,3.1,2.2c-0.2,3-0.8,6-1.3,9.7C347.4,225.5,350.9,221.3,350.1,217.6z"/>
			<path class="st0" d="M349.6,115.1c0.6,1.2,1.7,2.5-0.3,3.6c-1.9,1-2.4-0.4-3.1-1.7c-9.6-18.3-22.4-34.1-37.4-48.3
				c-0.6-0.6-1.2-1.4-1.3-2.2c0-0.3,1.2-0.8,2.1-1.4c1,0.6,1.9,1.1,2.6,1.7C327.3,80.9,340,96.9,349.6,115.1z"/>
			<path class="st1" d="M347.5,151.5c-0.3,0.2-0.6,0.4-0.9,0.7c-0.9-0.8-1.9-1.5-2.8-2.3c0.9-0.6,1.7-1.3,3-2.2
				C347.1,149.5,347.3,150.5,347.5,151.5z"/>
			<path class="st0" d="M344.3,120.5c0.4,0.7,0.7,1.6,0.6,2.4c-0.1,1.7-0.9,2.4-2.6,1.3c-1.5-0.9-3.1-1.7-4.6-2.6
				c-0.7-0.4-1.5-1.1-1.9-1.8c-2.6-3.9-5-7.9-7.5-12c-0.5-0.8-0.9-1.9-0.9-2.8c-0.1-4.2-1.7-6.5-5.8-8c-3.3-1.2-3.5-1.8-2.2-4.9
				c0.6-1.4,1-2.8,1.7-4.9c1,0.7,1.9,1.2,2.5,1.8C331.6,98.8,338.6,109.2,344.3,120.5z"/>
			<path class="st0" d="M334.4,120.4c-2.9,0.8-4.4,0.2-5.2-2.2c-0.7-2.1-2-4.1-2.9-6.1c-0.4-0.9-0.6-2-0.3-3.3
				C329.9,111.8,332,116.1,334.4,120.4z"/>
			<path class="st1" d="M324.5,271.1c0.2,4.8-7,11.5-12,11.1C316.6,278.3,320.4,274.8,324.5,271.1z"/>
			<path class="st0" d="M284.8,351.8c-0.7,0.9-1.2,2-2,2.6c-24,14.9-50.1,23.7-78.2,25.7c-29.6,2.1-58.8-0.3-86.8-11.3
				C65.5,348.1,22.6,301.2,8.8,247.8c-11.3-44-8.4-87.2,11.6-128.6c12-24.9,29.8-45.3,51.1-62.7c3.7-3,7.7-5.8,11.6-8.6
				c0.5-0.4,1.1-1,1.7-1c1-0.1,2,0.2,3,0.3c-0.4,0.9-0.5,2.1-1.2,2.6C81.1,54,75.3,58,70,62.5C37.9,90.1,16,123.9,9,166.1
				c-9.8,59.2,4.4,111.7,46.4,155.7c24.2,25.4,53,43,87.4,51.1c14,3.3,28.2,4.9,41.4,4.9c35.1,0.2,66.6-8,95.5-25.7
				c0.5-0.3,1-0.9,1.5-0.8C282.3,351.3,283.5,351.6,284.8,351.8z"/>
			<path class="st0" d="M272.2,351c0.1,0.3,0.3,0.6,0.4,0.9c-0.8,0.6-1.5,1.4-2.4,1.9c-12.8,7-26.2,12.5-40.5,15.5
				c-38.5,8.1-76.8,7.4-113.1-9c-53.2-24-88.4-64.2-102.2-121.6c-4.2-17.4-5-35.1-3.8-52.9l6.2,0.4c0,0.9-0.1,1.9-0.2,2.9
				c-2.5,47,11.9,88,44.4,122.4c24.6,26,54,43.7,89.3,50.5c37.3,7.2,73.6,3.9,108.3-12.1c1.7-0.8,2.9-0.6,4.6,0.3
				c1.7,1,4.1,0.9,6.2,1.1C270.4,351.4,271.3,351.1,272.2,351z"/>
			<path class="st1" d="M266.7,34.9c0.6,0.4,0.9,1.2,1.4,1.8c-0.7,0.5-1.4,1.2-2.2,1.3c-0.7,0.1-1.6-0.4-2.4-0.8
				c-5.2-2.2-10.3-4.5-15.6-6.4c-2.2-0.9-2.7-1.9-1.7-4.6c5.8,2.4,11.4,4.6,16.9,6.9C264.4,33.7,265.6,34.2,266.7,34.9z"/>
			<path class="st1" d="M266.6,117c-0.2,0.8-0.2,1.9-0.7,2.4c-1.9,1.6-3.9,3-6,4.5c-2.4,1.8-4.8,3.5-7.4,5.3
				c2.6,2.8-0.3,3.6-1.6,5.3c1.4,0.3,2.5,0.5,3.6,0.7c0.2,3-1.7,4.6-6.9,5.2c0.9-1.3,1.6-2.3,2.4-3.4c-0.9-0.4-1.9-0.7-3.1-1.2
				c0.2-0.8,0.4-1.6,0.6-2.4c-0.5-0.2-1.1-0.4-1.9-0.6c0.4-0.9,0.7-1.6,1.1-2.4c-1.7,0.6-3.2,1.1-4.8,1.7c-0.2-0.3-0.4-0.6-0.6-0.9
				c0.7-0.7,1.3-1.6,2.1-2c4.3-2.5,8.7-4.8,13-7.4c2.6-1.5,5-3.4,7.6-4.9C264.6,116.7,265.7,117,266.6,117z"/>
			<path class="st1" d="M259.9,39.4c0.2,0.1,0.1,1.9-0.2,2c-2.7,1.1-5.4,2.2-8.2,3c-1.8,0.5-2.9-0.3-2.5-2.5c0.4-2,0.6-4,1-6.8
				C253.5,36.5,256.8,37.8,259.9,39.4z"/>
			<path class="st0" d="M253.8,347.8c0.4,0.1,0.9,0.6,0.9,0.9c0,0.4-0.4,1.1-0.8,1.2c-6.2,2.4-12.4,4.7-19,7.1
				c-0.9-5.4,0-6.8,4.1-8.2c1.3-0.4,2.8-0.7,4-1.4C246.8,345,250.3,347,253.8,347.8z"/>
			<path class="st1" d="M236.3,167.9c5.6-2.9,10.9-4.5,14.3-4c-0.8,0.8-1.2,1.4-1.9,1.7c-4.8,2.6-9.6,5.2-14.4,7.6
				c-0.8,0.4-1.8,0.4-2.7,0.6c0.3-1,0.3-2.1,0.8-2.9c0.6-0.9,1.6-1.6,2.5-2.3C235.4,168.4,235.8,168.2,236.3,167.9z"/>
			<path class="st1" d="M247.7,159.9c0.1,0.3,0.3,0.6,0.4,0.9c-0.6,0.5-1.1,1.2-1.7,1.6c-2.5,1.2-5,2.1-7.5,3.4
				c-1,0.5-1.8,1.5-2.6,2.3c-0.5,0.2-0.9,0.5-1.4,0.7c-1.8-0.1-2.3-1.1-1-2.3c1.5-1.4,3.3-2.5,4.2-3.2c0.8-1.7,1.3-2.6,1.7-3.5
				c0.6,0.5,1.3,1.1,2.2,1.9C243.5,161.1,245.6,160.5,247.7,159.9z"/>
			<path class="st0" d="M246.1,111.6c0.1,0.3,0.2,0.6,0.3,0.9c-1,0.3-2,0.7-3,1c-9,2.7-17,7.1-24.1,13.2c-0.9,0.8-1.6,1.7-2.4,2.6
				c-1,0.1-2.1,0.2-3.1,0.2c-0.2,0-0.3-0.1-0.8-0.2c0.1-0.7,0.2-1.5,0.2-2.2c-4.8,1.5-9.6,3-15,4.8c0.2,0,0.6,0.1,0.9,0.2
				c4.1,0.9,6.1,3.1,5.2,7.5c-0.1,0.4,0.2,0.9,0.4,1.3c4.9,10.1,4.9,20.5,2.4,31.2c-0.2,1-0.9,1.9-1.9,2.7c1-8.9,2.5-17.6-1.7-26
				c-0.7,9.6-3.8,18.4-8.5,26.6c-0.5,0.9-1.5,1.7-2.8,2.2c3.1-9.6,8-18.5,7-29c-0.4,1.2-0.7,2.4-1.2,3.6c-2.6,6.1-5.2,12.3-8,18.4
				c-0.6,1.3-1.9,2.2-2.9,3.3c-0.3-0.2-0.6-0.3-0.9-0.5c0.2-0.8,0.2-1.6,0.5-2.2c4.8-8.5,8.4-17.5,9.6-27.3c0.3-2.2,0.7-4.3,3.6-4.5
				c0.6,0,1-1.3,1.6-2.1c-0.6-0.3-1.2-0.8-1.8-1c-3.1-0.8-6.1-1.5-9.4-2.2c0.6,2.6,1.5,5.2,1.8,7.8c0.3,2.3,1.4,5-1.2,7.1
				c-1.1-4.1-2.2-7.8-3-11.7c-0.7-3.9-2.4-6.6-6.5-7.6c-2.8-0.7-5.4-2.2-8.2-2.4c-4.4-0.4-8.1,3.7-8.5,8.5c-0.4,4.4,3,9.2,7.2,9.9
				c3.5,0.6,7.5-2.5,8.7-6.6c0.3-1.2,0.5-2.5,0.8-3.8c3,2,3.6,11.7,1.3,17.9c-3,8.2-9.8,12.9-18.2,12.1c0.6-1,1.1-1.8,1.6-2.5
				c2.6-3.3,2.6-8,0-11c-1.8-2.2-3.9-2.3-5.6,0c-2.2,2.8-2.5,5.8-1.1,9.1c0.4,0.9,0.7,1.7,1.1,2.6c-4.8,1-10.5-7-12.2-16.2
				c-1,5.1,1.4,9.6,3.4,13.9c2.1,4.5,5.7,7.8,10.8,9.7c-4.9,2.6-10.1-1.5-16.2-11.2c0.5,4,1,8,1.7,11.9c0,0.4,0.7,1,1.1,1
				c3.9-0.2,4.7,2.7,4.6,5.4c-0.1,3.5,1.6,4.5,4.5,4.9c8.1,1.3,15.5-0.8,22.5-4.7c0.9-0.5,1.7-1,2.6-1.5c0.3,0.2,0.5,0.4,0.8,0.6
				c-0.6,0.9-1.1,2.1-1.9,2.6c-6,4.2-12.8,6.4-20.1,6.5c-2,0-3.9,0-6.3,0c5.6,4.1,11.5,3.2,17,1.7c5.4-1.5,10.6-4,15.9-6.1
				c0.5,1.8-1,2.7-2.3,3.7c-7.2,5-15.2,7-23.8,6.5c-0.8,0-1.5-0.1-2.3-0.1c-0.1,0-0.3,0.1-0.5,0.2c3.1,3,10.7,4,18.3,2.7
				c6.3-1.1,11.6-4.3,16.4-8.6c0.3,0.3,0.6,0.7,0.9,1c-0.6,1-1,2.2-1.8,3c-3,3-6.4,5.2-10.1,6.6c-4.1,1.6-8.6,2.2-13.4,2
				c-5.9-0.2-11.4-2.1-16.7-4.8c-0.9-0.5-2.5,0.3-3.8,0.6c-0.1,0-0.3,0.4-0.3,0.4c-1.5-0.8-3.2-1.4-4.5-2.5
				c-0.6-0.4-0.4-1.8-0.5-2.8c1.9-0.3,0.5-1.8,1-2.5c1.1-1.6,0-2.3-0.8-3.3c-0.5-0.6-0.6-1.5-1-2.3c-0.4-0.9-1-1.8-1.6-2.7
				c0,0,0,0,0,0c-1.6-4-3.1-8.1-4.7-12.1c-0.3-0.6-1-1.1-1.5-1.7c-0.8-0.8-1.8-1.5-2.1-2.4c-0.1-0.4,1.2-1.3,2-2.2
				c-0.7-8.5-2-17.3-1.1-26.2c0.4,0,0.9-0.1,1.4-0.1c0.9,11.9,0.4,24,6.3,35c-2.8-12-3.7-23.9,0-35.9c0.1-0.4,0.8-0.6,1.6-0.9
				c-1.3,9.6-2.6,19.1,0,28.7c0.3-4.9,0.2-9.8,1-14.5c0.9-4.6,2.3-9.2,4.2-13.4c4.5-10,14.1-13.6,25.4-10c3,0.9,6,2,9,2.8
				c-11.8-8.8-23.4-7.9-34.7,1.7c-0.2-0.4-0.5-0.9-0.7-1.3c1-1.3,1.8-2.8,3.1-3.7c5.9-4.5,12.7-5.4,19.8-4.7
				c1.9,0.2,3.7,0.5,5.6,0.9c0.1-0.3,0.2-0.5,0.4-0.8c-2.9-1.4-5.7-3.2-8.7-4.1c-3.3-1-6.8-1.9-10.2-1.7c-3.2,0.2-6.3,1.9-9.5,3
				c-0.2-0.2-0.4-0.5-0.7-0.7c0.8-0.9,1.4-2.2,2.4-2.8c4.4-2.9,9.2-2.6,14-1.6c7.1,1.4,13.3,4.7,18.4,9.9c1.2,1.2,2.4,2.4,3.7,3.5
				c4.8,4,9,2.9,11.6-3.9c0.7-1.8,0.4-3.9,0.8-5.8c0.1-0.7,0.7-1.3,1.1-1.9c0.4,0.7,1.1,1.4,1,2c-0.3,3.3-0.7,6.6-1.1,10.1
				c0.9-0.4,2.2-0.9,3.2-1.4c-0.2-1.9-0.4-3.5-0.4-4.2c2-1.1,4-1.6,4.9-2.9c1.6-2.1,2.1-0.9,2.8,0.6c4.2-4,6.9-8.4,6.5-14.3
				c-3.5,0.5-5.1,2.4-5,6c1-0.4,1.9-0.7,3.1-1.1c0.3,3-1.7,3.9-3.4,3.9c-1.7,0-2.9-1.3-2.7-3.5c0.3-3.3,4.4-8.2,7.6-8.7
				c2.1-0.3,3.9,0.5,3.7,2.7c-0.3,3-0.6,6.4-2.2,8.9c-2.4,3.9-5.7,7.2-8.7,10.7c-1.1,1.3-2.5,2.3-3.4,3.7c13-5,22.6-14.4,31.2-25.2
				c-1.7,8-7.5,13.3-12.1,19.5c3.5-1.7,7-3.7,10.6-5.1C238.9,112.7,242.1,109.9,246.1,111.6z M162.9,134.4c0-2.6-1.6-4.7-3.5-4.7
				c-2,0-3.5,2.1-3.5,4.7c0,2.6,1.6,4.7,3.5,4.7C161.3,139.1,162.9,137,162.9,134.4z M148,180.5c2.7-1,3.1-2.1,1.4-5
				c-0.9,1.8-1.5,3.1-2.2,4.5C147.5,180.2,147.7,180.3,148,180.5z"/>
			<path class="st1" d="M234.5,259.2c0,2.2,0,4.5,0,6.7c-0.2,0-0.5,0-0.8,0c0-2.2,0-4.5,0-6.7C234,259.2,234.2,259.2,234.5,259.2z"
				/>
			<path class="st1" d="M230.7,22.2c1.2,0.3,3.1,0.1,2.4,2.1c-0.3,0.7-2.2,1.3-3.2,1c-22.3-5.1-44.8-6.3-67.5-3.7
				c-1.1,0.1-2.6,0.9-2.8-1.2c-0.2-1.9,1.3-1.9,2.4-2c8.1-0.6,16.2-1.1,24.3-1.7C201.4,17.2,216.2,18.7,230.7,22.2z"/>
			<path class="st1" d="M228.4,29.4c-0.7,0.7-1.3,1.5-2.1,2.1c-5.3,3.6-11,3.6-17.2,2.6c-15.4-2.3-30.8-2.1-46.2-0.1
				c-1.3,0.2-2.6,0.2-4.3,0.3c0.4-3.1,0.7-5.7,1.1-8.7c2.4-0.3,4.8-0.8,7.1-0.9c19.7-1.6,39.4-1.1,58.8,3.2
				C226.6,28.2,227.5,28.9,228.4,29.4z"/>
			<path class="st0" d="M224.4,358.9c-1.4,0.5-2.2,0.9-3,1.1c-31,5.4-61.6,4.4-91.7-5.6c-48.7-16.1-96.3-61.9-108-118
				c-10-48.4-2.6-93.6,27.7-133.8C62.3,85.5,78,71.2,96.1,59.8c2.5-1.6,5.6-0.2,6,2.7c0.1,0.5-0.5,1.4-1,1.7c-4.9,3-10,6-14.9,9
				c-1.1,0.7-2.3,1.4-3.2,2.3c-3.6,3.8-7.1,7.8-10.8,11.4c-24.5,23.7-40.9,51.8-46,85.6c-7.6,50,4.5,94.5,39.3,132
				c23.5,25.2,51.7,42.2,85.7,49.1c21.3,4.4,42.7,4.7,64.1,1.1c2.1-0.4,4.2-1,5.4,1.8C221.1,357.4,222.7,357.8,224.4,358.9z"/>
			<path class="st1" d="M217.9,132.7c1,0.1,1.8,0.2,2.9,0.4c-2.4,4.3-4.6,8.4-6.9,12.5c-0.4-0.2-0.9-0.4-1.3-0.5
				c0.7-2.3,1.4-4.6,2.2-7.4c-1.1,0.6-1.8,1-2.5,1.4c-0.2-0.4-0.5-0.7-0.4-0.8c0.8-1.7,1.5-3.4,2.4-5c0.7-1.3,1.7-2.6,2.5-3.9
				C219,129.8,218.7,131.2,217.9,132.7z"/>
			<path d="M216.2,43.8C216.2,43.8,216.2,43.8,216.2,43.8L216.2,43.8C216.2,43.9,216.2,43.9,216.2,43.8
				C216.2,43.9,216.2,43.8,216.2,43.8z"/>
			<path class="st1" d="M215.7,150.8c1.2,1.5,0.5,8.8-1.5,10.8c-0.2-3.8-0.4-7-0.4-10.2c0-0.4,0.6-0.8,1.1-1
				C214.9,150.3,215.4,150.6,215.7,150.8z"/>
			<path d="M215.5,320L215.5,320C215.5,320,215.5,320.1,215.5,320c0,0,0-0.1,0-0.1C215.5,319.9,215.5,320,215.5,320z"/>
			<path class="st1" d="M213.7,190.3c0.8,2.1,1.3,4-1.2,3.6c-0.3-0.3-0.6-0.6-0.9-0.9C212.4,192.1,213,191.2,213.7,190.3z"/>
			<path class="st1" d="M212.3,151.4c1.5,2.2,0.6,13-1.2,15c-0.1,0.1-0.4,0-1.1,0c0-1,0-1.9,0-2.8c0.1-3.1,0.2-6.1,0.3-9.2
				c0-0.9,0-1.9,0.1-2.8c0.1-0.4,0.5-0.9,0.9-0.9S212.1,151.1,212.3,151.4z"/>
			<path class="st1" d="M212.6,37.5c-0.6,0.6-1.1,1.4-1.9,1.8c-3.1,1.9-6.3,2.6-10.1,2.4c-8.5-0.5-17.1-0.3-25.7-0.4
				c-0.9,0-2,0-2.6-0.5c-3-2.9-4.5-2.3-8.8,0.3c-1.9,1.2-4.3,1.8-6.9,2.8c0-6.3,0.6-7,5.4-7.6c16.1-2,32.1-2,48.2,0.1
				C211.1,36.6,211.9,37.2,212.6,37.5z"/>
			<path d="M202.7,215L202.7,215C202.6,215,202.6,215,202.7,215C202.6,215,202.7,215,202.7,215z"/>
			<path class="st1" d="M202.6,212.4c0,0.9,0,1.8,0,2.6c-0.7,0.2-1.4,0.4-2.4,0.7C200,213.7,199.6,212.1,202.6,212.4z"/>
			<path class="st0" d="M187.7,74.1c0.9,0,1.8,0,3,0c-0.2,0.7-0.2,1.4-0.5,1.7c-4.6,3.5-6.8,8.7-9.7,13.3c-1.2,2-2.6,2.9-5.1,2.2
				c0-0.5-0.1-1.1,0.1-1.4c2.9-5.3,5.8-10.6,8.8-15.9c0.7-1.2,1-3.3,3.4-2.6C187.7,72.1,187.7,73,187.7,74.1z"/>
			<path class="st1" d="M182.5,43.8c0.2,0.4,0.4,0.8,0.6,1.2c-2.2,1.8-4.5,3.5-7.3,5.7c-0.3-2.6-0.4-4.3-0.6-6.4
				C177.6,44.2,180.1,44,182.5,43.8z"/>
			<path class="st0" d="M179.7,73.3c0,0.9,0,1.9-0.4,2.8c-1,2.2-2.2,4.4-3.4,6.5c-1.9,3.3-4.8,4.2-8.7,3.4c0.5-0.8,0.8-1.6,1.3-2.1
				c3.5-3.2,7.4-6.2,9.1-11c0.1-0.4,0.9-0.9,1.2-0.8C179.2,72.3,179.7,72.9,179.7,73.3z"/>
			<path class="st0" d="M158.6,83c3.3-1.5,5.1-5.2,9.6-5.1c-1.3,2.1-3,4.1-3.9,6.4c-0.9,2.5-0.9,5.3-1.4,8.7c-2.9-3-1.4-5.9-1.2-9.2
				c-1.2,1.4-2.1,2.5-2.9,3.5c-2.8,3.7-2.8,3.7-7,2.2c-0.6-4.7,2.9-9.4,7.1-9.3C158.9,81.2,158.7,82,158.6,83z"/>
			<path class="st1" d="M161.1,49.8c0.2,0.7,0.2,1.9-0.2,2.3c-3.5,3.6-7.2,7.2-10.9,10.7c-0.3,0.3-0.9,0.2-2.1,0.4
				c1.4-3.2,2.5-5.7,3.6-8.3c0.7-1.6,1.6-3.2,2.1-4.9c0.8-3.5,3.1-4.3,6.3-3.9C160.3,47.3,160.8,48.5,161.1,49.8z"/>
			<path class="st1" d="M144.8,212.3c3-0.7,2.9,2.3,2.9,4c0,4-0.5,8-0.9,12c0,0.6-0.6,1.2-0.9,1.8c-0.3,0-0.5-0.1-0.8-0.1
				c-0.1-0.9-0.3-1.9-0.4-2.8c-0.4-3.3-0.9-6.6-1.2-10C143.3,215.4,142,212.8,144.8,212.3z"/>
			<path class="st1" d="M142.1,179.3c-0.1,0.8-0.2,1.6-0.3,2.4c-0.3,0.1-0.5,0.3-0.8,0.4c-0.8-1.2-1.6-2.3-2.5-3.5
				c0.3-0.3,0.5-0.6,0.8-0.9C140.3,178.2,141.2,178.8,142.1,179.3z"/>
			<path class="st1" d="M138.9,204.9c0.3,1.6-0.4,2.6-3.1,1.7c0.7-1.3,1.3-2.4,1.8-3.4C138.1,203.7,138.8,204.2,138.9,204.9z"/>
			<path class="st1" d="M134.3,168.4c2.8,1.2,2.7,3,2.3,5.3C134.1,172.7,134.1,170.9,134.3,168.4z"/>
			<path class="st1" d="M130.5,158.1c0.6,2.7,1.4,5.3,2.2,8.3c-1.7,0-3.2-1-4.3,0.5c-0.1,0-1.6-0.7-1.6-1.1c0-0.9,0.5-1.9,0.8-2.9
				c0.3,0,0.5,0.1,0.8,0.1c-0.4-0.8-0.7-1.7-0.9-2.2c-1.7,0.5-3.3,0.9-4.9,1.4c-0.2-0.3-0.5-0.6-0.7-0.9c1.2-1.3,2.4-2.6,3.4-3.8
				c-0.4-0.3-1.6-0.8-1.7-1.4c-0.1-0.8,0.6-1.8,1-2.7c0.2-0.5,0.5-1.1,0.5-1.7c0.1-1.7,0-3.4,0.1-5.1c0.1-1.9,0.9-2.9,2.8-1.6
				C128.8,149.3,129.5,153.7,130.5,158.1z"/>
			<path class="st1" d="M129.7,137.3c0.1,1.7,0.1,3.4-0.1,5.1c-0.2,0.9-1,1.6-1.5,2.4c-0.1-2.6-0.2-5.1-0.2-7.7
				c0-0.6,0.6-1.2,0.9-1.8C129,136,129.6,136.7,129.7,137.3z"/>
			<path class="st1" d="M128.5,54.2c0,2.8,0,5.7,0,8.5C125.7,59.2,126.2,54.5,128.5,54.2z"/>
			<path class="st1" d="M128.1,49.9c0.1,0.4-0.9,1-1.4,1.5c-1.1-1.5-2.3-2.9-3.1-4.5c-0.3-0.6,0.5-1.7,0.8-2.5
				c0.6,0.3,1.3,0.5,1.9,0.8C126.9,46.8,127.6,48.3,128.1,49.9z"/>
			<path d="M128,144.8c0,0,0,0.1,0,0.1V144.8C127.9,144.9,127.9,144.9,128,144.8z"/>
			<path d="M127.9,144.9L127.9,144.9C127.9,145,127.9,144.9,127.9,144.9C127.9,144.9,127.9,144.9,127.9,144.9z"/>
			<path class="st1" d="M123.5,163.2c2.4,0.1,2.6,0.3,2.5,2.9C123.2,166.2,123.1,166.1,123.5,163.2z"/>
			<path class="st1" d="M108.7,80.7c0,2.5-0.4,5.1-0.6,7.6c-0.4,0-0.8,0-1.2,0c-0.2-0.6-0.6-1.1-0.7-1.7c-1.1-6.4-5.6-10-10.9-12.8
				c-1.9-1-1.9-1.8-0.2-2.9c2.3-1.4,4.6-2.9,6.9-4.4c1.5-1,2.5-0.7,3.5,0.8C108.4,71.3,108.6,76,108.7,80.7z"/>
			<path class="st0" d="M96.7,56.1c0,0.8-1.1,1.8-1.9,2.3C75.6,71,59.3,86.4,46,104.9c-17.5,24.4-27.1,51.6-29.2,81.4l-6.2-0.4
				c0.3-3.5,0.6-7,0.9-10.4C15,143,27.7,114.6,48.2,89.5c11.7-14.4,25.2-26.8,40.6-37.1C91.2,50.8,96.6,53.2,96.7,56.1z"/>
		</g>
		<g>
		</g>
	</g>
</g>
</svg>
